<?xml version="1.0" encoding="utf-8"?>
<!-- Generator: Adobe Illustrator 20.1.0, SVG Export Plug-In . SVG Version: 6.00 Build 0)  -->
<svg version="1.1" xmlns="http://www.w3.org/2000/svg" xmlns:xlink="http://www.w3.org/1999/xlink" x="0px" y="0px"
	 viewBox="0 0 545 194.7" style="enable-background:new 0 0 545 194.7;" xml:space="preserve">
<style type="text/css">
	.st0{fill:#FFFFFF;stroke:#000000;stroke-width:0.25;stroke-linecap:round;stroke-linejoin:bevel;stroke-miterlimit:10;}
	.st1{fill:#FFFFFF;stroke:#000000;stroke-width:0.25;stroke-linecap:round;stroke-miterlimit:10;}
	.st2{fill:#FEF2E0;stroke:#006934;stroke-width:0.25;stroke-linejoin:bevel;stroke-miterlimit:10;}
	.st3{display:none;}
	.st4{display:inline;}
	.st5{fill:#FFFFFF;}
	.st6{display:inline;fill:#FFFFFF;}
	.st7{opacity:0.2;}
	.st8{opacity:0.5;fill:#E84232;}
	.st9{fill:none;stroke:#E84232;stroke-width:0.5;stroke-linejoin:bevel;stroke-miterlimit:10;}
	.st10{opacity:0.5;fill:#3250A1;}
	.st11{fill:none;stroke:#3250A1;stroke-width:0.5;stroke-linejoin:bevel;stroke-miterlimit:10;}
	.st12{opacity:0.5;fill:#7A4B9A;}
	.st13{fill:none;stroke:#7A4B9A;stroke-width:0.5;stroke-linejoin:bevel;stroke-miterlimit:10;}
	.st14{opacity:0.5;fill:#006934;}
	.st15{fill:none;stroke:#006934;stroke-width:0.5;stroke-linejoin:bevel;stroke-miterlimit:10;}
	.st16{fill:#8ACCB4;}
	.st17{fill:#4CB77F;}
	.st18{fill:#2CAE9A;}
	.st19{fill:none;stroke:#000000;stroke-linecap:round;stroke-linejoin:bevel;stroke-miterlimit:10;}
	.st20{fill:none;stroke:#000000;stroke-miterlimit:10;}
</style>
<symbol  id="ひと" viewBox="-9.8 -13 19.5 26.1">
	<g>
		<polygon class="st0" points="-1.8,-12.9 -0.6,-12.3 -0.6,-4.3 -1.8,-4.9 		"/>
		<polygon class="st0" points="-1.8,-12.9 -3.1,-12.3 -3.1,-4.3 -1.8,-4.9 		"/>
	</g>
	<g>
		<polygon class="st0" points="1.8,-12.9 3,-12.3 3,-4.3 1.8,-4.9 		"/>
		<polygon class="st0" points="1.8,-12.9 0.6,-12.3 0.6,-4.3 1.8,-4.9 		"/>
	</g>
	<ellipse class="st1" cx="0" cy="-6.1" rx="4.8" ry="1.8"/>
	<polyline class="st1" points="-4.8,-6.1 -3,3.7 3,3.7 4.8,-6.1 	"/>
	<ellipse class="st1" cx="0" cy="3.8" rx="3" ry="1.1"/>
	<polygon class="st0" points="9.6,5.2 2.9,2 2.6,3.2 9.6,6.5 	"/>
	<polygon class="st0" points="9.6,6.5 2.6,3.2 2.6,4.4 8.8,7.3 	"/>
	<polygon class="st0" points="-9.6,5.2 -2.9,2 -2.6,3.2 -9.6,6.5 	"/>
	<polygon class="st0" points="-9.6,6.5 -2.6,3.2 -2.6,4.4 -8.8,7.3 	"/>
	<circle class="st1" cx="0.1" cy="8.1" r="4.9"/>
</symbol>
<g id="レイヤー_11">
	<rect x="-6.1" y="-2.2" class="st2" width="557.1" height="199"/>
</g>
<g id="レイヤー_10" class="st3">
	<g class="st4">
		<polygon class="st5" points="381.1,149.9 381.1,159.5 339.8,183.3 339.8,173.8 		"/>
		<polygon class="st5" points="372.8,145.2 331.5,169 339.8,173.8 381.1,149.9 		"/>
		<polygon class="st5" points="339.8,183.3 331.5,178.6 331.5,169 339.8,173.8 		"/>
		<polygon class="st5" points="315,149.9 315,159.5 273.7,183.3 273.7,173.8 		"/>
		<polygon class="st5" points="306.8,145.2 265.5,169 273.7,173.8 315,149.9 		"/>
		<polygon class="st5" points="273.7,183.3 265.5,178.6 265.5,169 273.7,173.8 		"/>
		<polygon class="st5" points="414.1,140.4 414.1,130.9 405.8,135.6 405.8,145.2 		"/>
		<polygon class="st5" points="447.1,149.9 447.1,159.5 405.8,183.3 405.8,173.8 		"/>
		<polygon class="st5" points="438.8,145.2 397.6,169 405.8,173.8 447.1,149.9 		"/>
		<polygon class="st5" points="405.8,183.3 397.6,178.6 397.6,169 405.8,173.8 		"/>
		<polygon class="st5" points="447.1,111.8 447.1,121.3 405.8,145.2 405.8,135.6 		"/>
		<polygon class="st5" points="438.8,107 397.6,130.9 405.8,135.6 447.1,111.8 		"/>
		<polygon class="st5" points="405.8,145.2 397.6,140.4 397.6,130.9 405.8,135.6 		"/>
		<polygon class="st5" points="513.1,111.8 513.1,121.3 471.9,145.2 471.9,135.6 		"/>
		<polygon class="st5" points="504.9,107 463.6,130.9 471.9,135.6 513.1,111.8 		"/>
		<polygon class="st5" points="471.9,145.2 463.6,140.4 463.6,130.9 471.9,135.6 		"/>
		<polygon class="st5" points="447.1,73.6 447.1,83.2 405.8,107 405.8,97.5 		"/>
		<polygon class="st5" points="438.8,68.8 397.6,92.7 405.8,97.5 447.1,73.6 		"/>
		<polygon class="st5" points="405.8,107 397.6,102.2 397.6,92.7 405.8,97.5 		"/>
		<polygon class="st5" points="513.1,73.6 513.1,83.2 471.9,107 471.9,97.5 		"/>
		<polygon class="st5" points="504.9,68.8 463.6,92.7 471.9,97.5 513.1,73.6 		"/>
		<polygon class="st5" points="471.9,107 463.6,102.2 463.6,92.7 471.9,97.5 		"/>
		<polygon class="st5" points="381.1,73.6 381.1,83.2 339.8,107 339.8,97.5 		"/>
		<polygon class="st5" points="372.8,68.8 331.5,92.7 339.8,97.5 381.1,73.6 		"/>
		<polygon class="st5" points="339.8,107 331.5,102.2 331.5,92.7 339.8,97.5 		"/>
		<polygon class="st5" points="447.1,35.5 447.1,45 405.8,68.8 405.8,59.3 		"/>
		<polygon class="st5" points="438.8,30.7 397.6,54.5 405.8,59.3 447.1,35.5 		"/>
		<polygon class="st5" points="405.8,68.8 397.6,64.1 397.6,54.5 405.8,59.3 		"/>
		<polygon class="st5" points="315,73.6 315,83.2 273.7,107 273.7,97.5 		"/>
		<polygon class="st5" points="306.8,68.8 265.5,92.7 273.7,97.5 315,73.6 		"/>
		<polygon class="st5" points="273.7,107 265.5,102.2 265.5,92.7 273.7,97.5 		"/>
		<polygon class="st5" points="381.1,35.5 381.1,45 339.8,68.8 339.8,59.3 		"/>
		<polygon class="st5" points="372.8,30.7 331.5,54.5 339.8,59.3 381.1,35.5 		"/>
		<polygon class="st5" points="339.8,68.8 331.5,64.1 331.5,54.5 339.8,59.3 		"/>
		<polygon class="st5" points="249,73.6 249,83.2 207.7,107 207.7,97.5 		"/>
		<polygon class="st5" points="240.7,68.8 199.4,92.7 207.7,97.5 249,73.6 		"/>
		<polygon class="st5" points="207.7,107 199.4,102.2 199.4,92.7 207.7,97.5 		"/>
		<polygon class="st5" points="249,149.9 249,159.5 207.7,183.3 207.7,173.8 		"/>
		<polygon class="st5" points="240.7,145.2 199.4,169 207.7,173.8 249,149.9 		"/>
		<polygon class="st5" points="207.7,183.3 199.4,178.6 199.4,169 207.7,173.8 		"/>
		<polygon class="st5" points="315,35.5 315,45 273.7,68.8 273.7,59.3 		"/>
		<polygon class="st5" points="306.8,30.7 265.5,54.5 273.7,59.3 315,35.5 		"/>
		<polygon class="st5" points="273.7,68.8 265.5,64.1 265.5,54.5 273.7,59.3 		"/>
		<polygon class="st5" points="141.6,107 133.4,102.2 133.4,92.7 141.6,97.5 		"/>
		<polygon class="st5" points="182.9,73.6 182.9,83.2 141.6,107 141.6,97.5 		"/>
		<polygon class="st5" points="174.7,68.8 133.4,92.7 141.6,97.5 182.9,73.6 		"/>
		<polygon class="st5" points="249,35.5 249,45 207.7,68.8 207.7,59.3 		"/>
		<polygon class="st5" points="240.7,30.7 199.4,54.5 207.7,59.3 249,35.5 		"/>
		<polygon class="st5" points="207.7,68.8 199.4,64.1 199.4,54.5 207.7,59.3 		"/>
		<polygon class="st5" points="182.9,35.5 182.9,45 141.6,68.8 141.6,59.3 		"/>
		<polygon class="st5" points="174.7,30.7 133.4,54.5 141.6,59.3 182.9,35.5 		"/>
		<polygon class="st5" points="141.6,68.8 133.4,64.1 133.4,54.5 141.6,59.3 		"/>
		<polygon class="st5" points="116.9,73.6 116.9,83.2 75.6,107 75.6,97.5 		"/>
		<polygon class="st5" points="108.6,68.8 67.3,92.7 75.6,97.5 116.9,73.6 		"/>
		<polygon class="st5" points="75.6,107 67.3,102.2 67.3,92.7 75.6,97.5 		"/>
		<polygon class="st5" points="116.9,83.2 116.9,73.6 108.6,78.4 108.6,87.9 		"/>
		<polygon class="st5" points="116.9,35.5 116.9,45 75.6,68.8 75.6,59.3 		"/>
		<polygon class="st5" points="108.6,30.7 67.3,54.5 75.6,59.3 116.9,35.5 		"/>
		<polygon class="st5" points="75.6,68.8 67.3,64.1 67.3,54.5 75.6,59.3 		"/>
		<polygon class="st5" points="182.9,149.9 182.9,159.5 141.6,183.3 141.6,173.8 		"/>
		<polygon class="st5" points="174.7,145.2 133.4,169 141.6,173.8 182.9,149.9 		"/>
		<polygon class="st5" points="141.6,183.3 133.4,178.6 133.4,169 141.6,173.8 		"/>
		<polygon class="st5" points="249,45 249,35.5 240.7,40.2 240.7,49.8 		"/>
		<polygon class="st5" points="116.9,111.8 116.9,121.3 75.6,145.2 75.6,135.6 		"/>
		<polygon class="st5" points="108.6,107 67.3,130.9 75.6,135.6 116.9,111.8 		"/>
		<polygon class="st5" points="75.6,145.2 67.3,140.4 67.3,130.9 75.6,135.6 		"/>
	</g>
	<polygon class="st6" points="67.3,54.5 67.3,64.1 108.6,87.9 108.6,78.4 	"/>
	<polygon class="st6" points="265.5,54.5 265.5,64.1 306.8,87.9 306.8,78.4 	"/>
	<polygon class="st6" points="199.4,16.4 199.4,25.9 240.7,49.8 240.7,40.2 	"/>
	<polygon class="st6" points="331.5,130.9 331.5,140.4 372.8,164.2 372.8,154.7 	"/>
	<polygon class="st6" points="331.5,130.9 339.8,126.1 381.1,149.9 372.8,154.7 	"/>
	<polygon class="st6" points="381.1,159.5 381.1,149.9 372.8,154.7 372.8,164.2 	"/>
	<polygon class="st6" points="397.6,130.9 397.6,140.4 438.8,164.2 438.8,154.7 	"/>
	<polygon class="st6" points="397.6,130.9 405.8,126.1 447.1,149.9 438.8,154.7 	"/>
	<polygon class="st6" points="447.1,159.5 447.1,149.9 438.8,154.7 438.8,164.2 	"/>
	<polygon class="st6" points="397.6,92.7 397.6,102.2 438.8,126.1 438.8,116.5 	"/>
	<polygon class="st6" points="397.6,92.7 405.8,87.9 447.1,111.8 438.8,116.5 	"/>
	<polygon class="st6" points="447.1,121.3 447.1,111.8 438.8,116.5 438.8,126.1 	"/>
	<polygon class="st6" points="463.6,92.7 463.6,102.2 504.9,126.1 504.9,116.5 	"/>
	<polygon class="st6" points="463.6,92.7 471.9,87.9 513.1,111.8 504.9,116.5 	"/>
	<polygon class="st6" points="513.1,121.3 513.1,111.8 504.9,116.5 504.9,126.1 	"/>
	<polygon class="st6" points="463.6,54.5 463.6,64.1 504.9,87.9 504.9,78.4 	"/>
	<polygon class="st6" points="463.6,54.5 471.9,49.8 513.1,73.6 504.9,78.4 	"/>
	<polygon class="st6" points="513.1,83.2 513.1,73.6 504.9,78.4 504.9,87.9 	"/>
	<polygon class="st6" points="265.5,130.9 265.5,140.4 306.8,164.2 306.8,154.7 	"/>
	<polygon class="st6" points="265.5,130.9 273.7,126.1 315,149.9 306.8,154.7 	"/>
	<polygon class="st6" points="315,159.5 315,149.9 306.8,154.7 306.8,164.2 	"/>
	<polygon class="st6" points="397.6,54.5 397.6,64.1 438.8,87.9 438.8,78.4 	"/>
	<polygon class="st6" points="397.6,54.5 405.8,49.8 447.1,73.6 438.8,78.4 	"/>
	<polygon class="st6" points="447.1,83.2 447.1,73.6 438.8,78.4 438.8,87.9 	"/>
	<polygon class="st6" points="265.5,92.7 265.5,102.2 306.8,126.1 306.8,116.5 	"/>
	<polygon class="st6" points="265.5,92.7 273.7,87.9 315,111.8 306.8,116.5 	"/>
	<polygon class="st6" points="315,121.3 315,111.8 306.8,116.5 306.8,126.1 	"/>
	<polygon class="st6" points="199.4,130.9 199.4,140.4 240.7,164.2 240.7,154.7 	"/>
	<polygon class="st6" points="199.4,130.9 207.7,126.1 249,149.9 240.7,154.7 	"/>
	<polygon class="st6" points="249,159.5 249,149.9 240.7,154.7 240.7,164.2 	"/>
	<polygon class="st6" points="331.5,54.5 331.5,64.1 372.8,87.9 372.8,78.4 	"/>
	<polygon class="st6" points="331.5,54.5 339.8,49.8 381.1,73.6 372.8,78.4 	"/>
	<polygon class="st6" points="397.6,16.4 397.6,25.9 438.8,49.8 438.8,40.2 	"/>
	<polygon class="st6" points="397.6,16.4 405.8,11.6 447.1,35.5 438.8,40.2 	"/>
	<polygon class="st6" points="447.1,45 447.1,35.5 438.8,40.2 438.8,49.8 	"/>
	<polygon class="st6" points="133.4,130.9 133.4,140.4 174.7,164.2 174.7,154.7 	"/>
	<polygon class="st6" points="133.4,130.9 141.6,126.1 182.9,149.9 174.7,154.7 	"/>
	<polygon class="st6" points="182.9,159.5 182.9,149.9 174.7,154.7 174.7,164.2 	"/>
	<polygon class="st6" points="265.5,54.5 273.7,49.8 315,73.6 306.8,78.4 	"/>
	<polygon class="st6" points="331.5,16.4 331.5,25.9 372.8,49.8 372.8,40.2 	"/>
	<polygon class="st6" points="331.5,16.4 339.8,11.6 381.1,35.5 372.8,40.2 	"/>
	<polygon class="st6" points="381.1,45 381.1,35.5 372.8,40.2 372.8,49.8 	"/>
	<polygon class="st6" points="199.4,54.5 199.4,64.1 240.7,87.9 240.7,78.4 	"/>
	<polygon class="st6" points="199.4,54.5 207.7,49.8 249,73.6 240.7,78.4 	"/>
	<polygon class="st6" points="249,83.2 249,73.6 240.7,78.4 240.7,87.9 	"/>
	<polygon class="st6" points="265.5,16.4 265.5,25.9 306.8,49.8 306.8,40.2 	"/>
	<polygon class="st6" points="265.5,16.4 273.7,11.6 315,35.5 306.8,40.2 	"/>
	<polygon class="st6" points="315,45 315,35.5 306.8,40.2 306.8,49.8 	"/>
	<polygon class="st6" points="67.3,92.7 67.3,102.2 108.6,126.1 108.6,116.5 	"/>
	<polygon class="st6" points="67.3,92.7 75.6,87.9 116.9,111.8 108.6,116.5 	"/>
	<polygon class="st6" points="116.9,121.3 116.9,111.8 108.6,116.5 108.6,126.1 	"/>
	<polygon class="st6" points="199.4,16.4 207.7,11.6 249,35.5 240.7,40.2 	"/>
	<polygon class="st6" points="133.4,16.4 133.4,25.9 174.7,49.8 174.7,40.2 	"/>
	<polygon class="st6" points="133.4,16.4 141.6,11.6 182.9,35.5 174.7,40.2 	"/>
	<polygon class="st6" points="182.9,45 182.9,35.5 174.7,40.2 174.7,49.8 	"/>
	<polygon class="st6" points="67.3,54.5 75.6,49.8 116.9,73.6 108.6,78.4 	"/>
	<polygon class="st6" points="67.3,130.9 67.3,140.4 108.6,164.2 108.6,154.7 	"/>
	<polygon class="st6" points="67.3,130.9 75.6,126.1 116.9,149.9 108.6,154.7 	"/>
	<polygon class="st6" points="116.9,159.5 116.9,149.9 108.6,154.7 108.6,164.2 	"/>
	<polygon class="st6" points="315,83.2 315,73.6 306.8,78.4 306.8,87.9 	"/>
	<polygon class="st6" points="166.4,73.6 166.4,83.2 207.7,107 207.7,97.5 	"/>
	<polygon class="st6" points="166.4,73.6 174.7,68.8 215.9,92.7 207.7,97.5 	"/>
	<polygon class="st6" points="215.9,102.2 215.9,92.7 207.7,97.5 207.7,107 	"/>
	<polygon class="st6" points="298.5,149.9 298.5,159.5 339.8,183.3 339.8,173.8 	"/>
	<polygon class="st6" points="298.5,149.9 306.8,145.2 348,169 339.8,173.8 	"/>
	<polygon class="st6" points="348,178.6 348,169 339.8,173.8 339.8,183.3 	"/>
	<polygon class="st6" points="364.5,149.9 364.5,159.5 405.8,183.3 405.8,173.8 	"/>
	<polygon class="st6" points="364.5,149.9 372.8,145.2 414.1,169 405.8,173.8 	"/>
	<polygon class="st6" points="414.1,178.6 414.1,169 405.8,173.8 405.8,183.3 	"/>
	<polygon class="st6" points="430.6,111.8 430.6,121.3 471.9,145.2 471.9,135.6 	"/>
	<polygon class="st6" points="430.6,111.8 438.8,107 480.1,130.9 471.9,135.6 	"/>
	<polygon class="st6" points="480.1,140.4 480.1,130.9 471.9,135.6 471.9,145.2 	"/>
	<polygon class="st6" points="430.6,73.6 430.6,83.2 471.9,107 471.9,97.5 	"/>
	<polygon class="st6" points="430.6,73.6 438.8,68.8 480.1,92.7 471.9,97.5 	"/>
	<polygon class="st6" points="480.1,102.2 480.1,92.7 471.9,97.5 471.9,107 	"/>
	<polygon class="st6" points="232.5,149.9 232.5,159.5 273.7,183.3 273.7,173.8 	"/>
	<polygon class="st6" points="232.5,149.9 240.7,145.2 282,169 273.7,173.8 	"/>
	<polygon class="st6" points="282,178.6 282,169 273.7,173.8 273.7,183.3 	"/>
	<polygon class="st6" points="364.5,73.6 364.5,83.2 405.8,107 405.8,97.5 	"/>
	<polygon class="st6" points="364.5,73.6 372.8,68.8 414.1,92.7 405.8,97.5 	"/>
	<polygon class="st6" points="414.1,102.2 414.1,92.7 405.8,97.5 405.8,107 	"/>
	<polygon class="st6" points="430.6,35.5 430.6,45 471.9,68.8 471.9,59.3 	"/>
	<polygon class="st6" points="430.6,35.5 438.8,30.7 480.1,54.5 471.9,59.3 	"/>
	<polygon class="st6" points="480.1,64.1 480.1,54.5 471.9,59.3 471.9,68.8 	"/>
	<polygon class="st6" points="298.5,73.6 298.5,83.2 339.8,107 339.8,97.5 	"/>
	<polygon class="st6" points="298.5,73.6 306.8,68.8 348,92.7 339.8,97.5 	"/>
	<polygon class="st6" points="348,102.2 348,92.7 339.8,97.5 339.8,107 	"/>
	<polygon class="st6" points="364.5,35.5 364.5,45 405.8,68.8 405.8,59.3 	"/>
	<polygon class="st6" points="364.5,35.5 372.8,30.7 414.1,54.5 405.8,59.3 	"/>
	<polygon class="st6" points="414.1,64.1 414.1,54.5 405.8,59.3 405.8,68.8 	"/>
	<polygon class="st6" points="232.5,73.6 232.5,83.2 273.7,107 273.7,97.5 	"/>
	<polygon class="st6" points="232.5,73.6 240.7,68.8 282,92.7 273.7,97.5 	"/>
	<polygon class="st6" points="282,102.2 282,92.7 273.7,97.5 273.7,107 	"/>
	<polygon class="st6" points="166.4,149.9 166.4,159.5 207.7,183.3 207.7,173.8 	"/>
	<polygon class="st6" points="166.4,149.9 174.7,145.2 215.9,169 207.7,173.8 	"/>
	<polygon class="st6" points="215.9,178.6 215.9,169 207.7,173.8 207.7,183.3 	"/>
	<polygon class="st6" points="298.5,35.5 298.5,45 339.8,68.8 339.8,59.3 	"/>
	<polygon class="st6" points="298.5,35.5 306.8,30.7 348,54.5 339.8,59.3 	"/>
	<polygon class="st6" points="348,64.1 348,54.5 339.8,59.3 339.8,68.8 	"/>
	<polygon class="st6" points="232.5,35.5 232.5,45 273.7,68.8 273.7,59.3 	"/>
	<polygon class="st6" points="232.5,35.5 240.7,30.7 282,54.5 273.7,59.3 	"/>
	<polygon class="st6" points="282,64.1 282,54.5 273.7,59.3 273.7,68.8 	"/>
	<polygon class="st6" points="166.4,35.5 166.4,45 207.7,68.8 207.7,59.3 	"/>
	<polygon class="st6" points="166.4,35.5 174.7,30.7 215.9,54.5 207.7,59.3 	"/>
	<polygon class="st6" points="215.9,64.1 215.9,54.5 207.7,59.3 207.7,68.8 	"/>
	<polygon class="st6" points="100.4,35.5 100.4,45 141.6,68.8 141.6,59.3 	"/>
	<polygon class="st6" points="100.4,35.5 108.6,30.7 149.9,54.5 141.6,59.3 	"/>
	<polygon class="st6" points="149.9,64.1 149.9,54.5 141.6,59.3 141.6,68.8 	"/>
	<polygon class="st6" points="34.3,73.6 34.3,83.2 75.6,107 75.6,97.5 	"/>
	<polygon class="st6" points="34.3,73.6 42.6,68.8 83.9,92.7 75.6,97.5 	"/>
	<polygon class="st6" points="83.9,102.2 83.9,92.7 75.6,97.5 75.6,107 	"/>
	<polygon class="st6" points="100.4,149.9 100.4,159.5 141.6,183.3 141.6,173.8 	"/>
	<polygon class="st6" points="100.4,149.9 108.6,145.2 149.9,169 141.6,173.8 	"/>
	<polygon class="st6" points="149.9,178.6 149.9,169 141.6,173.8 141.6,183.3 	"/>
	<polygon class="st6" points="34.3,111.8 34.3,121.3 75.6,145.2 75.6,135.6 	"/>
	<polygon class="st6" points="34.3,111.8 42.6,107 83.9,130.9 75.6,135.6 	"/>
	<polygon class="st6" points="83.9,140.4 83.9,130.9 75.6,135.6 75.6,145.2 	"/>
	<polygon class="st6" points="414.1,54.5 414.1,64.1 372.8,87.9 372.8,78.4 	"/>
	<polygon class="st6" points="348,130.9 348,140.4 306.8,164.2 306.8,154.7 	"/>
	<polygon class="st6" points="339.8,126.1 298.5,149.9 306.8,154.7 348,130.9 	"/>
	<polygon class="st6" points="306.8,164.2 298.5,159.5 298.5,149.9 306.8,154.7 	"/>
	<polygon class="st6" points="414.1,130.9 414.1,140.4 372.8,164.2 372.8,154.7 	"/>
	<polygon class="st6" points="405.8,126.1 364.5,149.9 372.8,154.7 414.1,130.9 	"/>
	<polygon class="st6" points="372.8,164.2 364.5,159.5 364.5,149.9 372.8,154.7 	"/>
	<polygon class="st6" points="480.1,130.9 480.1,140.4 438.8,164.2 438.8,154.7 	"/>
	<polygon class="st6" points="471.9,126.1 430.6,149.9 438.8,154.7 480.1,130.9 	"/>
	<polygon class="st6" points="438.8,164.2 430.6,159.5 430.6,149.9 438.8,154.7 	"/>
	<polygon class="st6" points="414.1,92.7 414.1,102.2 372.8,126.1 372.8,116.5 	"/>
	<polygon class="st6" points="405.8,87.9 364.5,111.8 372.8,116.5 414.1,92.7 	"/>
	<polygon class="st6" points="372.8,126.1 364.5,121.3 364.5,111.8 372.8,116.5 	"/>
	<polygon class="st6" points="480.1,92.7 480.1,102.2 438.8,126.1 438.8,116.5 	"/>
	<polygon class="st6" points="471.9,87.9 430.6,111.8 438.8,116.5 480.1,92.7 	"/>
	<polygon class="st6" points="438.8,126.1 430.6,121.3 430.6,111.8 438.8,116.5 	"/>
	<polygon class="st6" points="480.1,54.5 480.1,64.1 438.8,87.9 438.8,78.4 	"/>
	<polygon class="st6" points="471.9,49.8 430.6,73.6 438.8,78.4 480.1,54.5 	"/>
	<polygon class="st6" points="438.8,87.9 430.6,83.2 430.6,73.6 438.8,78.4 	"/>
	<polygon class="st6" points="282,130.9 282,140.4 240.7,164.2 240.7,154.7 	"/>
	<polygon class="st6" points="273.7,126.1 232.5,149.9 240.7,154.7 282,130.9 	"/>
	<polygon class="st6" points="240.7,164.2 232.5,159.5 232.5,149.9 240.7,154.7 	"/>
	<polygon class="st6" points="405.8,49.8 364.5,73.6 372.8,78.4 414.1,54.5 	"/>
	<polygon class="st6" points="282,92.7 282,102.2 240.7,126.1 240.7,116.5 	"/>
	<polygon class="st6" points="273.7,87.9 232.5,111.8 240.7,116.5 282,92.7 	"/>
	<polygon class="st6" points="240.7,126.1 232.5,121.3 232.5,111.8 240.7,116.5 	"/>
	<polygon class="st6" points="348,54.5 348,64.1 306.8,87.9 306.8,78.4 	"/>
	<polygon class="st6" points="339.8,49.8 298.5,73.6 306.8,78.4 348,54.5 	"/>
	<polygon class="st6" points="306.8,87.9 298.5,83.2 298.5,73.6 306.8,78.4 	"/>
	<polygon class="st6" points="414.1,16.4 414.1,25.9 372.8,49.8 372.8,40.2 	"/>
	<polygon class="st6" points="405.8,11.6 364.5,35.5 372.8,40.2 414.1,16.4 	"/>
	<polygon class="st6" points="372.8,49.8 364.5,45 364.5,35.5 372.8,40.2 	"/>
	<polygon class="st6" points="215.9,130.9 215.9,140.4 174.7,164.2 174.7,154.7 	"/>
	<polygon class="st6" points="207.7,126.1 166.4,149.9 174.7,154.7 215.9,130.9 	"/>
	<polygon class="st6" points="174.7,164.2 166.4,159.5 166.4,149.9 174.7,154.7 	"/>
	<polygon class="st6" points="282,54.5 282,64.1 240.7,87.9 240.7,78.4 	"/>
	<polygon class="st6" points="273.7,49.8 232.5,73.6 240.7,78.4 282,54.5 	"/>
	<polygon class="st6" points="240.7,87.9 232.5,83.2 232.5,73.6 240.7,78.4 	"/>
	<polygon class="st6" points="348,16.4 348,25.9 306.8,49.8 306.8,40.2 	"/>
	<polygon class="st6" points="339.8,11.6 298.5,35.5 306.8,40.2 348,16.4 	"/>
	<polygon class="st6" points="306.8,49.8 298.5,45 298.5,35.5 306.8,40.2 	"/>
	<polygon class="st6" points="215.9,54.5 215.9,64.1 174.7,87.9 174.7,78.4 	"/>
	<polygon class="st6" points="207.7,49.8 166.4,73.6 174.7,78.4 215.9,54.5 	"/>
	<polygon class="st6" points="174.7,87.9 166.4,83.2 166.4,73.6 174.7,78.4 	"/>
	<polygon class="st6" points="149.9,92.7 149.9,102.2 108.6,126.1 108.6,116.5 	"/>
	<polygon class="st6" points="141.6,87.9 100.4,111.8 108.6,116.5 149.9,92.7 	"/>
	<polygon class="st6" points="108.6,126.1 100.4,121.3 100.4,111.8 108.6,116.5 	"/>
	<polygon class="st6" points="282,16.4 282,25.9 240.7,49.8 240.7,40.2 	"/>
	<polygon class="st6" points="273.7,11.6 232.5,35.5 240.7,40.2 282,16.4 	"/>
	<polygon class="st6" points="240.7,49.8 232.5,45 232.5,35.5 240.7,40.2 	"/>
	<polygon class="st6" points="215.9,16.4 215.9,25.9 174.7,49.8 174.7,40.2 	"/>
	<polygon class="st6" points="207.7,11.6 166.4,35.5 174.7,40.2 215.9,16.4 	"/>
	<polygon class="st6" points="174.7,49.8 166.4,45 166.4,35.5 174.7,40.2 	"/>
	<polygon class="st6" points="149.9,16.4 149.9,25.9 108.6,49.8 108.6,40.2 	"/>
	<polygon class="st6" points="141.7,11.6 100.4,35.5 108.6,40.2 149.9,16.4 	"/>
	<polygon class="st6" points="108.6,49.8 100.4,45 100.4,35.5 108.6,40.2 	"/>
	<polygon class="st6" points="83.9,54.5 83.9,64.1 42.6,87.9 42.6,78.4 	"/>
	<polygon class="st6" points="75.6,49.8 34.3,73.6 42.6,78.4 83.9,54.5 	"/>
	<polygon class="st6" points="42.6,87.9 34.3,83.2 34.3,73.6 42.6,78.4 	"/>
	<polygon class="st6" points="149.9,130.9 149.9,140.4 108.6,164.2 108.6,154.7 	"/>
	<polygon class="st6" points="141.6,126.1 100.4,149.9 108.6,154.7 149.9,130.9 	"/>
	<polygon class="st6" points="108.6,164.2 100.4,159.5 100.4,149.9 108.6,154.7 	"/>
	<polygon class="st6" points="83.9,92.7 83.9,102.2 42.6,126.1 42.6,116.5 	"/>
	<polygon class="st6" points="75.6,87.9 34.3,111.8 42.6,116.5 83.9,92.7 	"/>
	<polygon class="st6" points="42.6,126.1 34.3,121.3 34.3,111.8 42.6,116.5 	"/>
</g>
<g id="レイヤー_3のコピー_2">
	<g id="レイヤー_6のコピー_2">
		<g id="新規シンボル_1_">
			<g class="st7">
				<polygon class="st8" points="381.1,149.9 381.1,159.5 339.8,183.3 339.8,173.8 				"/>
				<polygon class="st9" points="381.1,149.9 381.1,159.5 339.8,183.3 339.8,173.8 				"/>
			</g>
			<g class="st7">
				<polygon class="st8" points="372.8,145.2 331.5,169 339.8,173.8 381.1,149.9 				"/>
				<polygon class="st9" points="372.8,145.2 331.5,169 339.8,173.8 381.1,149.9 				"/>
			</g>
			<g class="st7">
				<polygon class="st8" points="339.8,183.3 331.5,178.6 331.5,169 339.8,173.8 				"/>
				<polygon class="st9" points="339.8,183.3 331.5,178.6 331.5,169 339.8,173.8 				"/>
			</g>
			<g class="st7">
				<polygon class="st8" points="315,149.9 315,159.5 273.7,183.3 273.7,173.8 				"/>
				<polygon class="st9" points="315,149.9 315,159.5 273.7,183.3 273.7,173.8 				"/>
			</g>
			<g class="st7">
				<polygon class="st8" points="306.8,145.2 265.5,169 273.7,173.8 315,149.9 				"/>
				<polygon class="st9" points="306.8,145.2 265.5,169 273.7,173.8 315,149.9 				"/>
			</g>
			<g class="st7">
				<polygon class="st8" points="273.7,183.3 265.5,178.6 265.5,169 273.7,173.8 				"/>
				<polygon class="st9" points="273.7,183.3 265.5,178.6 265.5,169 273.7,173.8 				"/>
			</g>
			<g class="st7">
				<polygon class="st8" points="414.1,140.4 414.1,130.9 405.8,135.6 405.8,145.2 				"/>
				<polygon class="st9" points="414.1,140.4 414.1,130.9 405.8,135.6 405.8,145.2 				"/>
			</g>
			<g class="st7">
				<polygon class="st8" points="447.1,149.9 447.1,159.5 405.8,183.3 405.8,173.8 				"/>
				<polygon class="st9" points="447.1,149.9 447.1,159.5 405.8,183.3 405.8,173.8 				"/>
			</g>
			<g class="st7">
				<polygon class="st8" points="438.8,145.2 397.6,169 405.8,173.8 447.1,149.9 				"/>
				<polygon class="st9" points="438.8,145.2 397.6,169 405.8,173.8 447.1,149.9 				"/>
			</g>
			<g class="st7">
				<polygon class="st8" points="405.8,183.3 397.6,178.6 397.6,169 405.8,173.8 				"/>
				<polygon class="st9" points="405.8,183.3 397.6,178.6 397.6,169 405.8,173.8 				"/>
			</g>
			<g class="st7">
				<polygon class="st8" points="447.1,111.8 447.1,121.3 405.8,145.2 405.8,135.6 				"/>
				<polygon class="st9" points="447.1,111.8 447.1,121.3 405.8,145.2 405.8,135.6 				"/>
			</g>
			<g class="st7">
				<polygon class="st8" points="438.8,107 397.6,130.9 405.8,135.6 447.1,111.8 				"/>
				<polygon class="st9" points="438.8,107 397.6,130.9 405.8,135.6 447.1,111.8 				"/>
			</g>
			<g class="st7">
				<polygon class="st8" points="405.8,145.2 397.6,140.4 397.6,130.9 405.8,135.6 				"/>
				<polygon class="st9" points="405.8,145.2 397.6,140.4 397.6,130.9 405.8,135.6 				"/>
			</g>
			<g class="st7">
				<polygon class="st8" points="513.1,111.8 513.1,121.3 471.9,145.2 471.9,135.6 				"/>
				<polygon class="st9" points="513.1,111.8 513.1,121.3 471.9,145.2 471.9,135.6 				"/>
			</g>
			<g class="st7">
				<polygon class="st8" points="504.9,107 463.6,130.9 471.9,135.6 513.1,111.8 				"/>
				<polygon class="st9" points="504.9,107 463.6,130.9 471.9,135.6 513.1,111.8 				"/>
			</g>
			<g class="st7">
				<polygon class="st8" points="471.9,145.2 463.6,140.4 463.6,130.9 471.9,135.6 				"/>
				<polygon class="st9" points="471.9,145.2 463.6,140.4 463.6,130.9 471.9,135.6 				"/>
			</g>
			<g class="st7">
				<polygon class="st8" points="447.1,73.6 447.1,83.2 405.8,107 405.8,97.5 				"/>
				<polygon class="st9" points="447.1,73.6 447.1,83.2 405.8,107 405.8,97.5 				"/>
			</g>
			<g class="st7">
				<polygon class="st8" points="438.8,68.8 397.6,92.7 405.8,97.5 447.1,73.6 				"/>
				<polygon class="st9" points="438.8,68.8 397.6,92.7 405.8,97.5 447.1,73.6 				"/>
			</g>
			<g class="st7">
				<polygon class="st8" points="405.8,107 397.6,102.2 397.6,92.7 405.8,97.5 				"/>
				<polygon class="st9" points="405.8,107 397.6,102.2 397.6,92.7 405.8,97.5 				"/>
			</g>
			<g class="st7">
				<polygon class="st8" points="513.1,73.6 513.1,83.2 471.9,107 471.9,97.5 				"/>
				<polygon class="st9" points="513.1,73.6 513.1,83.2 471.9,107 471.9,97.5 				"/>
			</g>
			<g class="st7">
				<polygon class="st8" points="504.9,68.8 463.6,92.7 471.9,97.5 513.1,73.6 				"/>
				<polygon class="st9" points="504.9,68.8 463.6,92.7 471.9,97.5 513.1,73.6 				"/>
			</g>
			<g class="st7">
				<polygon class="st8" points="471.9,107 463.6,102.2 463.6,92.7 471.9,97.5 				"/>
				<polygon class="st9" points="471.9,107 463.6,102.2 463.6,92.7 471.9,97.5 				"/>
			</g>
			<g class="st7">
				<polygon class="st8" points="381.1,73.6 381.1,83.2 339.8,107 339.8,97.5 				"/>
				<polygon class="st9" points="381.1,73.6 381.1,83.2 339.8,107 339.8,97.5 				"/>
			</g>
			<g class="st7">
				<polygon class="st8" points="372.8,68.8 331.5,92.7 339.8,97.5 381.1,73.6 				"/>
				<polygon class="st9" points="372.8,68.8 331.5,92.7 339.8,97.5 381.1,73.6 				"/>
			</g>
			<g class="st7">
				<polygon class="st8" points="339.8,107 331.5,102.2 331.5,92.7 339.8,97.5 				"/>
				<polygon class="st9" points="339.8,107 331.5,102.2 331.5,92.7 339.8,97.5 				"/>
			</g>
			<g class="st7">
				<polygon class="st8" points="447.1,35.5 447.1,45 405.8,68.8 405.8,59.3 				"/>
				<polygon class="st9" points="447.1,35.5 447.1,45 405.8,68.8 405.8,59.3 				"/>
			</g>
			<g class="st7">
				<polygon class="st8" points="438.8,30.7 397.6,54.5 405.8,59.3 447.1,35.5 				"/>
				<polygon class="st9" points="438.8,30.7 397.6,54.5 405.8,59.3 447.1,35.5 				"/>
			</g>
			<g class="st7">
				<polygon class="st8" points="405.8,68.8 397.6,64.1 397.6,54.5 405.8,59.3 				"/>
				<polygon class="st9" points="405.8,68.8 397.6,64.1 397.6,54.5 405.8,59.3 				"/>
			</g>
			<g class="st7">
				<polygon class="st8" points="315,73.6 315,83.2 273.7,107 273.7,97.5 				"/>
				<polygon class="st9" points="315,73.6 315,83.2 273.7,107 273.7,97.5 				"/>
			</g>
			<g class="st7">
				<polygon class="st8" points="306.8,68.8 265.5,92.7 273.7,97.5 315,73.6 				"/>
				<polygon class="st9" points="306.8,68.8 265.5,92.7 273.7,97.5 315,73.6 				"/>
			</g>
			<g class="st7">
				<polygon class="st8" points="273.7,107 265.5,102.2 265.5,92.7 273.7,97.5 				"/>
				<polygon class="st9" points="273.7,107 265.5,102.2 265.5,92.7 273.7,97.5 				"/>
			</g>
			<g class="st7">
				<polygon class="st8" points="381.1,35.5 381.1,45 339.8,68.8 339.8,59.3 				"/>
				<polygon class="st9" points="381.1,35.5 381.1,45 339.8,68.8 339.8,59.3 				"/>
			</g>
			<g class="st7">
				<polygon class="st8" points="372.8,30.7 331.5,54.5 339.8,59.3 381.1,35.5 				"/>
				<polygon class="st9" points="372.8,30.7 331.5,54.5 339.8,59.3 381.1,35.5 				"/>
			</g>
			<g class="st7">
				<polygon class="st8" points="339.8,68.8 331.5,64.1 331.5,54.5 339.8,59.3 				"/>
				<polygon class="st9" points="339.8,68.8 331.5,64.1 331.5,54.5 339.8,59.3 				"/>
			</g>
			<g class="st7">
				<polygon class="st8" points="249,73.6 249,83.2 207.7,107 207.7,97.5 				"/>
				<polygon class="st9" points="249,73.6 249,83.2 207.7,107 207.7,97.5 				"/>
			</g>
			<g class="st7">
				<polygon class="st8" points="240.7,68.8 199.4,92.7 207.7,97.5 249,73.6 				"/>
				<polygon class="st9" points="240.7,68.8 199.4,92.7 207.7,97.5 249,73.6 				"/>
			</g>
			<g class="st7">
				<polygon class="st8" points="207.7,107 199.4,102.2 199.4,92.7 207.7,97.5 				"/>
				<polygon class="st9" points="207.7,107 199.4,102.2 199.4,92.7 207.7,97.5 				"/>
			</g>
			<g class="st7">
				<polygon class="st8" points="249,149.9 249,159.5 207.7,183.3 207.7,173.8 				"/>
				<polygon class="st9" points="249,149.9 249,159.5 207.7,183.3 207.7,173.8 				"/>
			</g>
			<g class="st7">
				<polygon class="st8" points="240.7,145.2 199.4,169 207.7,173.8 249,149.9 				"/>
				<polygon class="st9" points="240.7,145.2 199.4,169 207.7,173.8 249,149.9 				"/>
			</g>
			<g class="st7">
				<polygon class="st8" points="207.7,183.3 199.4,178.6 199.4,169 207.7,173.8 				"/>
				<polygon class="st9" points="207.7,183.3 199.4,178.6 199.4,169 207.7,173.8 				"/>
			</g>
			<g class="st7">
				<polygon class="st8" points="315,35.5 315,45 273.7,68.8 273.7,59.3 				"/>
				<polygon class="st9" points="315,35.5 315,45 273.7,68.8 273.7,59.3 				"/>
			</g>
			<g class="st7">
				<polygon class="st8" points="306.8,30.7 265.5,54.5 273.7,59.3 315,35.5 				"/>
				<polygon class="st9" points="306.8,30.7 265.5,54.5 273.7,59.3 315,35.5 				"/>
			</g>
			<g class="st7">
				<polygon class="st8" points="273.7,68.8 265.5,64.1 265.5,54.5 273.7,59.3 				"/>
				<polygon class="st9" points="273.7,68.8 265.5,64.1 265.5,54.5 273.7,59.3 				"/>
			</g>
			<g class="st7">
				<polygon class="st8" points="141.6,107 133.4,102.2 133.4,92.7 141.6,97.5 				"/>
				<polygon class="st9" points="141.6,107 133.4,102.2 133.4,92.7 141.6,97.5 				"/>
			</g>
			<g class="st7">
				<polygon class="st8" points="182.9,73.6 182.9,83.2 141.6,107 141.6,97.5 				"/>
				<polygon class="st9" points="182.9,73.6 182.9,83.2 141.6,107 141.6,97.5 				"/>
			</g>
			<g class="st7">
				<polygon class="st8" points="174.7,68.8 133.4,92.7 141.6,97.5 182.9,73.6 				"/>
				<polygon class="st9" points="174.7,68.8 133.4,92.7 141.6,97.5 182.9,73.6 				"/>
			</g>
			<g class="st7">
				<polygon class="st8" points="249,35.5 249,45 207.7,68.8 207.7,59.3 				"/>
				<polygon class="st9" points="249,35.5 249,45 207.7,68.8 207.7,59.3 				"/>
			</g>
			<g class="st7">
				<polygon class="st8" points="240.7,30.7 199.4,54.5 207.7,59.3 249,35.5 				"/>
				<polygon class="st9" points="240.7,30.7 199.4,54.5 207.7,59.3 249,35.5 				"/>
			</g>
			<g class="st7">
				<polygon class="st8" points="207.7,68.8 199.4,64.1 199.4,54.5 207.7,59.3 				"/>
				<polygon class="st9" points="207.7,68.8 199.4,64.1 199.4,54.5 207.7,59.3 				"/>
			</g>
			<g class="st7">
				<polygon class="st8" points="182.9,35.5 182.9,45 141.6,68.8 141.6,59.3 				"/>
				<polygon class="st9" points="182.9,35.5 182.9,45 141.6,68.8 141.6,59.3 				"/>
			</g>
			<g class="st7">
				<polygon class="st8" points="174.7,30.7 133.4,54.5 141.6,59.3 182.9,35.5 				"/>
				<polygon class="st9" points="174.7,30.7 133.4,54.5 141.6,59.3 182.9,35.5 				"/>
			</g>
			<g class="st7">
				<polygon class="st8" points="141.6,68.8 133.4,64.1 133.4,54.5 141.6,59.3 				"/>
				<polygon class="st9" points="141.6,68.8 133.4,64.1 133.4,54.5 141.6,59.3 				"/>
			</g>
			<g class="st7">
				<polygon class="st8" points="116.9,73.6 116.9,83.2 75.6,107 75.6,97.5 				"/>
				<polygon class="st9" points="116.9,73.6 116.9,83.2 75.6,107 75.6,97.5 				"/>
			</g>
			<g class="st7">
				<polygon class="st8" points="108.6,68.8 67.3,92.7 75.6,97.5 116.9,73.6 				"/>
				<polygon class="st9" points="108.6,68.8 67.3,92.7 75.6,97.5 116.9,73.6 				"/>
			</g>
			<g class="st7">
				<polygon class="st8" points="75.6,107 67.3,102.2 67.3,92.7 75.6,97.5 				"/>
				<polygon class="st9" points="75.6,107 67.3,102.2 67.3,92.7 75.6,97.5 				"/>
			</g>
			<g class="st7">
				<polygon class="st8" points="116.9,83.2 116.9,73.6 108.6,78.4 108.6,87.9 				"/>
				<polygon class="st9" points="116.9,83.2 116.9,73.6 108.6,78.4 108.6,87.9 				"/>
			</g>
			<g class="st7">
				<polygon class="st8" points="116.9,35.5 116.9,45 75.6,68.8 75.6,59.3 				"/>
				<polygon class="st9" points="116.9,35.5 116.9,45 75.6,68.8 75.6,59.3 				"/>
			</g>
			<g class="st7">
				<polygon class="st8" points="108.6,30.7 67.3,54.5 75.6,59.3 116.9,35.5 				"/>
				<polygon class="st9" points="108.6,30.7 67.3,54.5 75.6,59.3 116.9,35.5 				"/>
			</g>
			<g class="st7">
				<polygon class="st8" points="75.6,68.8 67.3,64.1 67.3,54.5 75.6,59.3 				"/>
				<polygon class="st9" points="75.6,68.8 67.3,64.1 67.3,54.5 75.6,59.3 				"/>
			</g>
			<g class="st7">
				<polygon class="st8" points="182.9,149.9 182.9,159.5 141.6,183.3 141.6,173.8 				"/>
				<polygon class="st9" points="182.9,149.9 182.9,159.5 141.6,183.3 141.6,173.8 				"/>
			</g>
			<g class="st7">
				<polygon class="st8" points="174.7,145.2 133.4,169 141.6,173.8 182.9,149.9 				"/>
				<polygon class="st9" points="174.7,145.2 133.4,169 141.6,173.8 182.9,149.9 				"/>
			</g>
			<g class="st7">
				<polygon class="st8" points="141.6,183.3 133.4,178.6 133.4,169 141.6,173.8 				"/>
				<polygon class="st9" points="141.6,183.3 133.4,178.6 133.4,169 141.6,173.8 				"/>
			</g>
			<g class="st7">
				<polygon class="st8" points="116.9,111.8 116.9,121.3 75.6,145.2 75.6,135.6 				"/>
				<polygon class="st9" points="116.9,111.8 116.9,121.3 75.6,145.2 75.6,135.6 				"/>
			</g>
			<g class="st7">
				<polygon class="st8" points="108.6,107 67.3,130.9 75.6,135.6 116.9,111.8 				"/>
				<polygon class="st9" points="108.6,107 67.3,130.9 75.6,135.6 116.9,111.8 				"/>
			</g>
			<g class="st7">
				<polygon class="st8" points="75.6,145.2 67.3,140.4 67.3,130.9 75.6,135.6 				"/>
				<polygon class="st9" points="75.6,145.2 67.3,140.4 67.3,130.9 75.6,135.6 				"/>
			</g>
		</g>
		<g id="新規シンボル_1_1_">
			<g class="st7">
				<polygon class="st10" points="67.3,54.5 67.3,64.1 108.6,87.9 108.6,78.4 				"/>
				<polygon class="st11" points="67.3,54.5 67.3,64.1 108.6,87.9 108.6,78.4 				"/>
			</g>
			<g class="st7">
				<polygon class="st10" points="265.5,54.5 265.5,64.1 306.8,87.9 306.8,78.4 				"/>
				<polygon class="st11" points="265.5,54.5 265.5,64.1 306.8,87.9 306.8,78.4 				"/>
			</g>
			<g class="st7">
				<polygon class="st10" points="199.4,16.4 199.4,25.9 240.7,49.8 240.7,40.2 				"/>
				<polygon class="st11" points="199.4,16.4 199.4,25.9 240.7,49.8 240.7,40.2 				"/>
			</g>
			<g class="st7">
				<polygon class="st10" points="331.5,130.9 331.5,140.4 372.8,164.2 372.8,154.7 				"/>
				<polygon class="st11" points="331.5,130.9 331.5,140.4 372.8,164.2 372.8,154.7 				"/>
			</g>
			<g class="st7">
				<polygon class="st10" points="331.5,130.9 339.8,126.1 381.1,149.9 372.8,154.7 				"/>
				<polygon class="st11" points="331.5,130.9 339.8,126.1 381.1,149.9 372.8,154.7 				"/>
			</g>
			<g class="st7">
				<polygon class="st10" points="381.1,159.5 381.1,149.9 372.8,154.7 372.8,164.2 				"/>
				<polygon class="st11" points="381.1,159.5 381.1,149.9 372.8,154.7 372.8,164.2 				"/>
			</g>
			<g class="st7">
				<polygon class="st10" points="397.6,130.9 397.6,140.4 438.8,164.2 438.8,154.7 				"/>
				<polygon class="st11" points="397.6,130.9 397.6,140.4 438.8,164.2 438.8,154.7 				"/>
			</g>
			<g class="st7">
				<polygon class="st10" points="397.6,130.9 405.8,126.1 447.1,149.9 438.8,154.7 				"/>
				<polygon class="st11" points="397.6,130.9 405.8,126.1 447.1,149.9 438.8,154.7 				"/>
			</g>
			<g class="st7">
				<polygon class="st10" points="447.1,159.5 447.1,149.9 438.8,154.7 438.8,164.2 				"/>
				<polygon class="st11" points="447.1,159.5 447.1,149.9 438.8,154.7 438.8,164.2 				"/>
			</g>
			<g class="st7">
				<polygon class="st10" points="397.6,92.7 397.6,102.2 438.8,126.1 438.8,116.5 				"/>
				<polygon class="st11" points="397.6,92.7 397.6,102.2 438.8,126.1 438.8,116.5 				"/>
			</g>
			<g class="st7">
				<polygon class="st10" points="397.6,92.7 405.8,87.9 447.1,111.8 438.8,116.5 				"/>
				<polygon class="st11" points="397.6,92.7 405.8,87.9 447.1,111.8 438.8,116.5 				"/>
			</g>
			<g class="st7">
				<polygon class="st10" points="447.1,121.3 447.1,111.8 438.8,116.5 438.8,126.1 				"/>
				<polygon class="st11" points="447.1,121.3 447.1,111.8 438.8,116.5 438.8,126.1 				"/>
			</g>
			<g class="st7">
				<polygon class="st10" points="463.6,92.7 463.6,102.2 504.9,126.1 504.9,116.5 				"/>
				<polygon class="st11" points="463.6,92.7 463.6,102.2 504.9,126.1 504.9,116.5 				"/>
			</g>
			<g class="st7">
				<polygon class="st10" points="463.6,92.7 471.9,87.9 513.1,111.8 504.9,116.5 				"/>
				<polygon class="st11" points="463.6,92.7 471.9,87.9 513.1,111.8 504.9,116.5 				"/>
			</g>
			<g class="st7">
				<polygon class="st10" points="513.1,121.3 513.1,111.8 504.9,116.5 504.9,126.1 				"/>
				<polygon class="st11" points="513.1,121.3 513.1,111.8 504.9,116.5 504.9,126.1 				"/>
			</g>
			<g class="st7">
				<polygon class="st10" points="463.6,54.5 463.6,64.1 504.9,87.9 504.9,78.4 				"/>
				<polygon class="st11" points="463.6,54.5 463.6,64.1 504.9,87.9 504.9,78.4 				"/>
			</g>
			<g class="st7">
				<polygon class="st10" points="463.6,54.5 471.9,49.8 513.1,73.6 504.9,78.4 				"/>
				<polygon class="st11" points="463.6,54.5 471.9,49.8 513.1,73.6 504.9,78.4 				"/>
			</g>
			<g class="st7">
				<polygon class="st10" points="513.1,83.2 513.1,73.6 504.9,78.4 504.9,87.9 				"/>
				<polygon class="st11" points="513.1,83.2 513.1,73.6 504.9,78.4 504.9,87.9 				"/>
			</g>
			<g class="st7">
				<polygon class="st10" points="265.5,130.9 265.5,140.4 306.8,164.2 306.8,154.7 				"/>
				<polygon class="st11" points="265.5,130.9 265.5,140.4 306.8,164.2 306.8,154.7 				"/>
			</g>
			<g class="st7">
				<polygon class="st10" points="265.5,130.9 273.7,126.1 315,149.9 306.8,154.7 				"/>
				<polygon class="st11" points="265.5,130.9 273.7,126.1 315,149.9 306.8,154.7 				"/>
			</g>
			<g class="st7">
				<polygon class="st10" points="315,159.5 315,149.9 306.8,154.7 306.8,164.2 				"/>
				<polygon class="st11" points="315,159.5 315,149.9 306.8,154.7 306.8,164.2 				"/>
			</g>
			<g class="st7">
				<polygon class="st10" points="397.6,54.5 397.6,64.1 438.8,87.9 438.8,78.4 				"/>
				<polygon class="st11" points="397.6,54.5 397.6,64.1 438.8,87.9 438.8,78.4 				"/>
			</g>
			<g class="st7">
				<polygon class="st10" points="397.6,54.5 405.8,49.8 447.1,73.6 438.8,78.4 				"/>
				<polygon class="st11" points="397.6,54.5 405.8,49.8 447.1,73.6 438.8,78.4 				"/>
			</g>
			<g class="st7">
				<polygon class="st10" points="447.1,83.2 447.1,73.6 438.8,78.4 438.8,87.9 				"/>
				<polygon class="st11" points="447.1,83.2 447.1,73.6 438.8,78.4 438.8,87.9 				"/>
			</g>
			<g class="st7">
				<polygon class="st10" points="265.5,92.7 265.5,102.2 306.8,126.1 306.8,116.5 				"/>
				<polygon class="st11" points="265.5,92.7 265.5,102.2 306.8,126.1 306.8,116.5 				"/>
			</g>
			<g class="st7">
				<polygon class="st10" points="265.5,92.7 273.7,87.9 315,111.8 306.8,116.5 				"/>
				<polygon class="st11" points="265.5,92.7 273.7,87.9 315,111.8 306.8,116.5 				"/>
			</g>
			<g class="st7">
				<polygon class="st10" points="315,121.3 315,111.8 306.8,116.5 306.8,126.1 				"/>
				<polygon class="st11" points="315,121.3 315,111.8 306.8,116.5 306.8,126.1 				"/>
			</g>
			<g class="st7">
				<polygon class="st10" points="199.4,130.9 199.4,140.4 240.7,164.2 240.7,154.7 				"/>
				<polygon class="st11" points="199.4,130.9 199.4,140.4 240.7,164.2 240.7,154.7 				"/>
			</g>
			<g class="st7">
				<polygon class="st10" points="199.4,130.9 207.7,126.1 249,149.9 240.7,154.7 				"/>
				<polygon class="st11" points="199.4,130.9 207.7,126.1 249,149.9 240.7,154.7 				"/>
			</g>
			<g class="st7">
				<polygon class="st10" points="249,159.5 249,149.9 240.7,154.7 240.7,164.2 				"/>
				<polygon class="st11" points="249,159.5 249,149.9 240.7,154.7 240.7,164.2 				"/>
			</g>
			<g class="st7">
				<polygon class="st10" points="331.5,54.5 331.5,64.1 372.8,87.9 372.8,78.4 				"/>
				<polygon class="st11" points="331.5,54.5 331.5,64.1 372.8,87.9 372.8,78.4 				"/>
			</g>
			<g class="st7">
				<polygon class="st10" points="331.5,54.5 339.8,49.8 381.1,73.6 372.8,78.4 				"/>
				<polygon class="st11" points="331.5,54.5 339.8,49.8 381.1,73.6 372.8,78.4 				"/>
			</g>
			<g class="st7">
				<polygon class="st10" points="397.6,16.4 397.6,25.9 438.8,49.8 438.8,40.2 				"/>
				<polygon class="st11" points="397.6,16.4 397.6,25.9 438.8,49.8 438.8,40.2 				"/>
			</g>
			<g class="st7">
				<polygon class="st10" points="397.6,16.4 405.8,11.6 447.1,35.5 438.8,40.2 				"/>
				<polygon class="st11" points="397.6,16.4 405.8,11.6 447.1,35.5 438.8,40.2 				"/>
			</g>
			<g class="st7">
				<polygon class="st10" points="447.1,45 447.1,35.5 438.8,40.2 438.8,49.8 				"/>
				<polygon class="st11" points="447.1,45 447.1,35.5 438.8,40.2 438.8,49.8 				"/>
			</g>
			<g class="st7">
				<polygon class="st10" points="133.4,130.9 133.4,140.4 174.7,164.2 174.7,154.7 				"/>
				<polygon class="st11" points="133.4,130.9 133.4,140.4 174.7,164.2 174.7,154.7 				"/>
			</g>
			<g class="st7">
				<polygon class="st10" points="133.4,130.9 141.6,126.1 182.9,149.9 174.7,154.7 				"/>
				<polygon class="st11" points="133.4,130.9 141.6,126.1 182.9,149.9 174.7,154.7 				"/>
			</g>
			<g class="st7">
				<polygon class="st10" points="182.9,159.5 182.9,149.9 174.7,154.7 174.7,164.2 				"/>
				<polygon class="st11" points="182.9,159.5 182.9,149.9 174.7,154.7 174.7,164.2 				"/>
			</g>
			<g class="st7">
				<polygon class="st10" points="265.5,54.5 273.7,49.8 315,73.6 306.8,78.4 				"/>
				<polygon class="st11" points="265.5,54.5 273.7,49.8 315,73.6 306.8,78.4 				"/>
			</g>
			<g class="st7">
				<polygon class="st10" points="331.5,16.4 331.5,25.9 372.8,49.8 372.8,40.2 				"/>
				<polygon class="st11" points="331.5,16.4 331.5,25.9 372.8,49.8 372.8,40.2 				"/>
			</g>
			<g class="st7">
				<polygon class="st10" points="331.5,16.4 339.8,11.6 381.1,35.5 372.8,40.2 				"/>
				<polygon class="st11" points="331.5,16.4 339.8,11.6 381.1,35.5 372.8,40.2 				"/>
			</g>
			<g class="st7">
				<polygon class="st10" points="381.1,45 381.1,35.5 372.8,40.2 372.8,49.8 				"/>
				<polygon class="st11" points="381.1,45 381.1,35.5 372.8,40.2 372.8,49.8 				"/>
			</g>
			<g class="st7">
				<polygon class="st10" points="199.4,54.5 199.4,64.1 240.7,87.9 240.7,78.4 				"/>
				<polygon class="st11" points="199.4,54.5 199.4,64.1 240.7,87.9 240.7,78.4 				"/>
			</g>
			<g class="st7">
				<polygon class="st10" points="199.4,54.5 207.7,49.8 249,73.6 240.7,78.4 				"/>
				<polygon class="st11" points="199.4,54.5 207.7,49.8 249,73.6 240.7,78.4 				"/>
			</g>
			<g class="st7">
				<polygon class="st10" points="249,83.2 249,73.6 240.7,78.4 240.7,87.9 				"/>
				<polygon class="st11" points="249,83.2 249,73.6 240.7,78.4 240.7,87.9 				"/>
			</g>
			<g class="st7">
				<polygon class="st10" points="265.5,16.4 265.5,25.9 306.8,49.8 306.8,40.2 				"/>
				<polygon class="st11" points="265.5,16.4 265.5,25.9 306.8,49.8 306.8,40.2 				"/>
			</g>
			<g class="st7">
				<polygon class="st10" points="265.5,16.4 273.7,11.6 315,35.5 306.8,40.2 				"/>
				<polygon class="st11" points="265.5,16.4 273.7,11.6 315,35.5 306.8,40.2 				"/>
			</g>
			<g class="st7">
				<polygon class="st10" points="315,45 315,35.5 306.8,40.2 306.8,49.8 				"/>
				<polygon class="st11" points="315,45 315,35.5 306.8,40.2 306.8,49.8 				"/>
			</g>
			<g class="st7">
				<polygon class="st10" points="67.3,92.7 67.3,102.2 108.6,126.1 108.6,116.5 				"/>
				<polygon class="st11" points="67.3,92.7 67.3,102.2 108.6,126.1 108.6,116.5 				"/>
			</g>
			<g class="st7">
				<polygon class="st10" points="67.3,92.7 75.6,87.9 116.9,111.8 108.6,116.5 				"/>
				<polygon class="st11" points="67.3,92.7 75.6,87.9 116.9,111.8 108.6,116.5 				"/>
			</g>
			<g class="st7">
				<polygon class="st10" points="116.9,121.3 116.9,111.8 108.6,116.5 108.6,126.1 				"/>
				<polygon class="st11" points="116.9,121.3 116.9,111.8 108.6,116.5 108.6,126.1 				"/>
			</g>
			<g class="st7">
				<polygon class="st10" points="199.4,16.4 207.7,11.6 249,35.5 240.7,40.2 				"/>
				<polygon class="st11" points="199.4,16.4 207.7,11.6 249,35.5 240.7,40.2 				"/>
			</g>
			<g class="st7">
				<polygon class="st10" points="133.4,16.4 133.4,25.9 174.7,49.8 174.7,40.2 				"/>
				<polygon class="st11" points="133.4,16.4 133.4,25.9 174.7,49.8 174.7,40.2 				"/>
			</g>
			<g class="st7">
				<polygon class="st10" points="133.4,16.4 141.6,11.6 182.9,35.5 174.7,40.2 				"/>
				<polygon class="st11" points="133.4,16.4 141.6,11.6 182.9,35.5 174.7,40.2 				"/>
			</g>
			<g class="st7">
				<polygon class="st10" points="182.9,45 182.9,35.5 174.7,40.2 174.7,49.8 				"/>
				<polygon class="st11" points="182.9,45 182.9,35.5 174.7,40.2 174.7,49.8 				"/>
			</g>
			<g class="st7">
				<polygon class="st10" points="67.3,54.5 75.6,49.8 116.9,73.6 108.6,78.4 				"/>
				<polygon class="st11" points="67.3,54.5 75.6,49.8 116.9,73.6 108.6,78.4 				"/>
			</g>
			<g class="st7">
				<polygon class="st10" points="67.3,130.9 67.3,140.4 108.6,164.2 108.6,154.7 				"/>
				<polygon class="st11" points="67.3,130.9 67.3,140.4 108.6,164.2 108.6,154.7 				"/>
			</g>
			<g class="st7">
				<polygon class="st10" points="67.3,130.9 75.6,126.1 116.9,149.9 108.6,154.7 				"/>
				<polygon class="st11" points="67.3,130.9 75.6,126.1 116.9,149.9 108.6,154.7 				"/>
			</g>
			<g class="st7">
				<polygon class="st10" points="116.9,159.5 116.9,149.9 108.6,154.7 108.6,164.2 				"/>
				<polygon class="st11" points="116.9,159.5 116.9,149.9 108.6,154.7 108.6,164.2 				"/>
			</g>
			<g class="st7">
				<polygon class="st10" points="315,83.2 315,73.6 306.8,78.4 306.8,87.9 				"/>
				<polygon class="st11" points="315,83.2 315,73.6 306.8,78.4 306.8,87.9 				"/>
			</g>
			<g class="st7">
				<polygon class="st10" points="249,45 249,35.5 240.7,40.2 240.7,49.8 				"/>
				<polygon class="st11" points="249,45 249,35.5 240.7,40.2 240.7,49.8 				"/>
			</g>
		</g>
		<g id="新規シンボル_1">
			<g class="st7">
				<polygon class="st12" points="166.4,73.6 166.4,83.2 207.7,107 207.7,97.5 				"/>
				<polygon class="st13" points="166.4,73.6 166.4,83.2 207.7,107 207.7,97.5 				"/>
			</g>
			<g class="st7">
				<polygon class="st12" points="166.4,73.6 174.7,68.8 215.9,92.7 207.7,97.5 				"/>
				<polygon class="st13" points="166.4,73.6 174.7,68.8 215.9,92.7 207.7,97.5 				"/>
			</g>
			<g class="st7">
				<polygon class="st12" points="215.9,102.2 215.9,92.7 207.7,97.5 207.7,107 				"/>
				<polygon class="st13" points="215.9,102.2 215.9,92.7 207.7,97.5 207.7,107 				"/>
			</g>
			<g class="st7">
				<polygon class="st12" points="298.5,149.9 298.5,159.5 339.8,183.3 339.8,173.8 				"/>
				<polygon class="st13" points="298.5,149.9 298.5,159.5 339.8,183.3 339.8,173.8 				"/>
			</g>
			<g class="st7">
				<polygon class="st12" points="298.5,149.9 306.8,145.2 348,169 339.8,173.8 				"/>
				<polygon class="st13" points="298.5,149.9 306.8,145.2 348,169 339.8,173.8 				"/>
			</g>
			<g class="st7">
				<polygon class="st12" points="348,178.6 348,169 339.8,173.8 339.8,183.3 				"/>
				<polygon class="st13" points="348,178.6 348,169 339.8,173.8 339.8,183.3 				"/>
			</g>
			<g class="st7">
				<polygon class="st12" points="364.5,149.9 364.5,159.5 405.8,183.3 405.8,173.8 				"/>
				<polygon class="st13" points="364.5,149.9 364.5,159.5 405.8,183.3 405.8,173.8 				"/>
			</g>
			<g class="st7">
				<polygon class="st12" points="364.5,149.9 372.8,145.2 414.1,169 405.8,173.8 				"/>
				<polygon class="st13" points="364.5,149.9 372.8,145.2 414.1,169 405.8,173.8 				"/>
			</g>
			<g class="st7">
				<polygon class="st12" points="414.1,178.6 414.1,169 405.8,173.8 405.8,183.3 				"/>
				<polygon class="st13" points="414.1,178.6 414.1,169 405.8,173.8 405.8,183.3 				"/>
			</g>
			<g class="st7">
				<polygon class="st12" points="430.6,111.8 430.6,121.3 471.9,145.2 471.9,135.6 				"/>
				<polygon class="st13" points="430.6,111.8 430.6,121.3 471.9,145.2 471.9,135.6 				"/>
			</g>
			<g class="st7">
				<polygon class="st12" points="430.6,111.8 438.8,107 480.1,130.9 471.9,135.6 				"/>
				<polygon class="st13" points="430.6,111.8 438.8,107 480.1,130.9 471.9,135.6 				"/>
			</g>
			<g class="st7">
				<polygon class="st12" points="480.1,140.4 480.1,130.9 471.9,135.6 471.9,145.2 				"/>
				<polygon class="st13" points="480.1,140.4 480.1,130.9 471.9,135.6 471.9,145.2 				"/>
			</g>
			<g class="st7">
				<polygon class="st12" points="430.6,73.6 430.6,83.2 471.9,107 471.9,97.5 				"/>
				<polygon class="st13" points="430.6,73.6 430.6,83.2 471.9,107 471.9,97.5 				"/>
			</g>
			<g class="st7">
				<polygon class="st12" points="430.6,73.6 438.8,68.8 480.1,92.7 471.9,97.5 				"/>
				<polygon class="st13" points="430.6,73.6 438.8,68.8 480.1,92.7 471.9,97.5 				"/>
			</g>
			<g class="st7">
				<polygon class="st12" points="480.1,102.2 480.1,92.7 471.9,97.5 471.9,107 				"/>
				<polygon class="st13" points="480.1,102.2 480.1,92.7 471.9,97.5 471.9,107 				"/>
			</g>
			<g class="st7">
				<polygon class="st12" points="232.5,149.9 232.5,159.5 273.7,183.3 273.7,173.8 				"/>
				<polygon class="st13" points="232.5,149.9 232.5,159.5 273.7,183.3 273.7,173.8 				"/>
			</g>
			<g class="st7">
				<polygon class="st12" points="232.5,149.9 240.7,145.2 282,169 273.7,173.8 				"/>
				<polygon class="st13" points="232.5,149.9 240.7,145.2 282,169 273.7,173.8 				"/>
			</g>
			<g class="st7">
				<polygon class="st12" points="282,178.6 282,169 273.7,173.8 273.7,183.3 				"/>
				<polygon class="st13" points="282,178.6 282,169 273.7,173.8 273.7,183.3 				"/>
			</g>
			<g class="st7">
				<polygon class="st12" points="364.5,73.6 364.5,83.2 405.8,107 405.8,97.5 				"/>
				<polygon class="st13" points="364.5,73.6 364.5,83.2 405.8,107 405.8,97.5 				"/>
			</g>
			<g class="st7">
				<polygon class="st12" points="364.5,73.6 372.8,68.8 414.1,92.7 405.8,97.5 				"/>
				<polygon class="st13" points="364.5,73.6 372.8,68.8 414.1,92.7 405.8,97.5 				"/>
			</g>
			<g class="st7">
				<polygon class="st12" points="414.1,102.2 414.1,92.7 405.8,97.5 405.8,107 				"/>
				<polygon class="st13" points="414.1,102.2 414.1,92.7 405.8,97.5 405.8,107 				"/>
			</g>
			<g class="st7">
				<polygon class="st12" points="430.6,35.5 430.6,45 471.9,68.8 471.9,59.3 				"/>
				<polygon class="st13" points="430.6,35.5 430.6,45 471.9,68.8 471.9,59.3 				"/>
			</g>
			<g class="st7">
				<polygon class="st12" points="430.6,35.5 438.8,30.7 480.1,54.5 471.9,59.3 				"/>
				<polygon class="st13" points="430.6,35.5 438.8,30.7 480.1,54.5 471.9,59.3 				"/>
			</g>
			<g class="st7">
				<polygon class="st12" points="480.1,64.1 480.1,54.5 471.9,59.3 471.9,68.8 				"/>
				<polygon class="st13" points="480.1,64.1 480.1,54.5 471.9,59.3 471.9,68.8 				"/>
			</g>
			<g class="st7">
				<polygon class="st12" points="298.5,73.6 298.5,83.2 339.8,107 339.8,97.5 				"/>
				<polygon class="st13" points="298.5,73.6 298.5,83.2 339.8,107 339.8,97.5 				"/>
			</g>
			<g class="st7">
				<polygon class="st12" points="298.5,73.6 306.8,68.8 348,92.7 339.8,97.5 				"/>
				<polygon class="st13" points="298.5,73.6 306.8,68.8 348,92.7 339.8,97.5 				"/>
			</g>
			<g class="st7">
				<polygon class="st12" points="348,102.2 348,92.7 339.8,97.5 339.8,107 				"/>
				<polygon class="st13" points="348,102.2 348,92.7 339.8,97.5 339.8,107 				"/>
			</g>
			<g class="st7">
				<polygon class="st12" points="364.5,35.5 364.5,45 405.8,68.8 405.8,59.3 				"/>
				<polygon class="st13" points="364.5,35.5 364.5,45 405.8,68.8 405.8,59.3 				"/>
			</g>
			<g class="st7">
				<polygon class="st12" points="364.5,35.5 372.8,30.7 414.1,54.5 405.8,59.3 				"/>
				<polygon class="st13" points="364.5,35.5 372.8,30.7 414.1,54.5 405.8,59.3 				"/>
			</g>
			<g class="st7">
				<polygon class="st12" points="414.1,64.1 414.1,54.5 405.8,59.3 405.8,68.8 				"/>
				<polygon class="st13" points="414.1,64.1 414.1,54.5 405.8,59.3 405.8,68.8 				"/>
			</g>
			<g class="st7">
				<polygon class="st12" points="232.5,73.6 232.5,83.2 273.7,107 273.7,97.5 				"/>
				<polygon class="st13" points="232.5,73.6 232.5,83.2 273.7,107 273.7,97.5 				"/>
			</g>
			<g class="st7">
				<polygon class="st12" points="232.5,73.6 240.7,68.8 282,92.7 273.7,97.5 				"/>
				<polygon class="st13" points="232.5,73.6 240.7,68.8 282,92.7 273.7,97.5 				"/>
			</g>
			<g class="st7">
				<polygon class="st12" points="282,102.2 282,92.7 273.7,97.5 273.7,107 				"/>
				<polygon class="st13" points="282,102.2 282,92.7 273.7,97.5 273.7,107 				"/>
			</g>
			<g class="st7">
				<polygon class="st12" points="166.4,149.9 166.4,159.5 207.7,183.3 207.7,173.8 				"/>
				<polygon class="st13" points="166.4,149.9 166.4,159.5 207.7,183.3 207.7,173.8 				"/>
			</g>
			<g class="st7">
				<polygon class="st12" points="166.4,149.9 174.7,145.2 215.9,169 207.7,173.8 				"/>
				<polygon class="st13" points="166.4,149.9 174.7,145.2 215.9,169 207.7,173.8 				"/>
			</g>
			<g class="st7">
				<polygon class="st12" points="215.9,178.6 215.9,169 207.7,173.8 207.7,183.3 				"/>
				<polygon class="st13" points="215.9,178.6 215.9,169 207.7,173.8 207.7,183.3 				"/>
			</g>
			<g class="st7">
				<polygon class="st12" points="298.5,35.5 298.5,45 339.8,68.8 339.8,59.3 				"/>
				<polygon class="st13" points="298.5,35.5 298.5,45 339.8,68.8 339.8,59.3 				"/>
			</g>
			<g class="st7">
				<polygon class="st12" points="298.5,35.5 306.8,30.7 348,54.5 339.8,59.3 				"/>
				<polygon class="st13" points="298.5,35.5 306.8,30.7 348,54.5 339.8,59.3 				"/>
			</g>
			<g class="st7">
				<polygon class="st12" points="348,64.1 348,54.5 339.8,59.3 339.8,68.8 				"/>
				<polygon class="st13" points="348,64.1 348,54.5 339.8,59.3 339.8,68.8 				"/>
			</g>
			<g class="st7">
				<polygon class="st12" points="232.5,35.5 232.5,45 273.7,68.8 273.7,59.3 				"/>
				<polygon class="st13" points="232.5,35.5 232.5,45 273.7,68.8 273.7,59.3 				"/>
			</g>
			<g class="st7">
				<polygon class="st12" points="232.5,35.5 240.7,30.7 282,54.5 273.7,59.3 				"/>
				<polygon class="st13" points="232.5,35.5 240.7,30.7 282,54.5 273.7,59.3 				"/>
			</g>
			<g class="st7">
				<polygon class="st12" points="282,64.1 282,54.5 273.7,59.3 273.7,68.8 				"/>
				<polygon class="st13" points="282,64.1 282,54.5 273.7,59.3 273.7,68.8 				"/>
			</g>
			<g class="st7">
				<polygon class="st12" points="166.4,35.5 166.4,45 207.7,68.8 207.7,59.3 				"/>
				<polygon class="st13" points="166.4,35.5 166.4,45 207.7,68.8 207.7,59.3 				"/>
			</g>
			<g class="st7">
				<polygon class="st12" points="166.4,35.5 174.7,30.7 215.9,54.5 207.7,59.3 				"/>
				<polygon class="st13" points="166.4,35.5 174.7,30.7 215.9,54.5 207.7,59.3 				"/>
			</g>
			<g class="st7">
				<polygon class="st12" points="215.9,64.1 215.9,54.5 207.7,59.3 207.7,68.8 				"/>
				<polygon class="st13" points="215.9,64.1 215.9,54.5 207.7,59.3 207.7,68.8 				"/>
			</g>
			<g class="st7">
				<polygon class="st12" points="100.4,35.5 100.4,45 141.6,68.8 141.6,59.3 				"/>
				<polygon class="st13" points="100.4,35.5 100.4,45 141.6,68.8 141.6,59.3 				"/>
			</g>
			<g class="st7">
				<polygon class="st12" points="100.4,35.5 108.6,30.7 149.9,54.5 141.6,59.3 				"/>
				<polygon class="st13" points="100.4,35.5 108.6,30.7 149.9,54.5 141.6,59.3 				"/>
			</g>
			<g class="st7">
				<polygon class="st12" points="149.9,64.1 149.9,54.5 141.6,59.3 141.6,68.8 				"/>
				<polygon class="st13" points="149.9,64.1 149.9,54.5 141.6,59.3 141.6,68.8 				"/>
			</g>
			<g class="st7">
				<polygon class="st12" points="34.3,73.6 34.3,83.2 75.6,107 75.6,97.5 				"/>
				<polygon class="st13" points="34.3,73.6 34.3,83.2 75.6,107 75.6,97.5 				"/>
			</g>
			<g class="st7">
				<polygon class="st12" points="34.3,73.6 42.6,68.8 83.9,92.7 75.6,97.5 				"/>
				<polygon class="st13" points="34.3,73.6 42.6,68.8 83.9,92.7 75.6,97.5 				"/>
			</g>
			<g class="st7">
				<polygon class="st12" points="83.9,102.2 83.9,92.7 75.6,97.5 75.6,107 				"/>
				<polygon class="st13" points="83.9,102.2 83.9,92.7 75.6,97.5 75.6,107 				"/>
			</g>
			<g class="st7">
				<polygon class="st12" points="100.4,149.9 100.4,159.5 141.6,183.3 141.6,173.8 				"/>
				<polygon class="st13" points="100.4,149.9 100.4,159.5 141.6,183.3 141.6,173.8 				"/>
			</g>
			<g class="st7">
				<polygon class="st12" points="100.4,149.9 108.6,145.2 149.9,169 141.6,173.8 				"/>
				<polygon class="st13" points="100.4,149.9 108.6,145.2 149.9,169 141.6,173.8 				"/>
			</g>
			<g class="st7">
				<polygon class="st12" points="149.9,178.6 149.9,169 141.6,173.8 141.6,183.3 				"/>
				<polygon class="st13" points="149.9,178.6 149.9,169 141.6,173.8 141.6,183.3 				"/>
			</g>
			<g class="st7">
				<polygon class="st12" points="34.3,111.8 34.3,121.3 75.6,145.2 75.6,135.6 				"/>
				<polygon class="st13" points="34.3,111.8 34.3,121.3 75.6,145.2 75.6,135.6 				"/>
			</g>
			<g class="st7">
				<polygon class="st12" points="34.3,111.8 42.6,107 83.9,130.9 75.6,135.6 				"/>
				<polygon class="st13" points="34.3,111.8 42.6,107 83.9,130.9 75.6,135.6 				"/>
			</g>
			<g class="st7">
				<polygon class="st12" points="83.9,140.4 83.9,130.9 75.6,135.6 75.6,145.2 				"/>
				<polygon class="st13" points="83.9,140.4 83.9,130.9 75.6,135.6 75.6,145.2 				"/>
			</g>
		</g>
		<g id="新規シンボル">
			<g class="st7">
				<polygon class="st14" points="414.1,54.5 414.1,64.1 372.8,87.9 372.8,78.4 				"/>
				<polygon class="st15" points="414.1,54.5 414.1,64.1 372.8,87.9 372.8,78.4 				"/>
			</g>
			<g class="st7">
				<polygon class="st14" points="348,130.9 348,140.4 306.8,164.2 306.8,154.7 				"/>
				<polygon class="st15" points="348,130.9 348,140.4 306.8,164.2 306.8,154.7 				"/>
			</g>
			<g class="st7">
				<polygon class="st14" points="339.8,126.1 298.5,149.9 306.8,154.7 348,130.9 				"/>
				<polygon class="st15" points="339.8,126.1 298.5,149.9 306.8,154.7 348,130.9 				"/>
			</g>
			<g class="st7">
				<polygon class="st14" points="306.8,164.2 298.5,159.5 298.5,149.9 306.8,154.7 				"/>
				<polygon class="st15" points="306.8,164.2 298.5,159.5 298.5,149.9 306.8,154.7 				"/>
			</g>
			<g class="st7">
				<polygon class="st14" points="414.1,130.9 414.1,140.4 372.8,164.2 372.8,154.7 				"/>
				<polygon class="st15" points="414.1,130.9 414.1,140.4 372.8,164.2 372.8,154.7 				"/>
			</g>
			<g class="st7">
				<polygon class="st14" points="405.8,126.1 364.5,149.9 372.8,154.7 414.1,130.9 				"/>
				<polygon class="st15" points="405.8,126.1 364.5,149.9 372.8,154.7 414.1,130.9 				"/>
			</g>
			<g class="st7">
				<polygon class="st14" points="372.8,164.2 364.5,159.5 364.5,149.9 372.8,154.7 				"/>
				<polygon class="st15" points="372.8,164.2 364.5,159.5 364.5,149.9 372.8,154.7 				"/>
			</g>
			<g class="st7">
				<polygon class="st14" points="480.1,130.9 480.1,140.4 438.8,164.2 438.8,154.7 				"/>
				<polygon class="st15" points="480.1,130.9 480.1,140.4 438.8,164.2 438.8,154.7 				"/>
			</g>
			<g class="st7">
				<polygon class="st14" points="471.9,126.1 430.6,149.9 438.8,154.7 480.1,130.9 				"/>
				<polygon class="st15" points="471.9,126.1 430.6,149.9 438.8,154.7 480.1,130.9 				"/>
			</g>
			<g class="st7">
				<polygon class="st14" points="438.8,164.2 430.6,159.5 430.6,149.9 438.8,154.7 				"/>
				<polygon class="st15" points="438.8,164.2 430.6,159.5 430.6,149.9 438.8,154.7 				"/>
			</g>
			<g class="st7">
				<polygon class="st14" points="414.1,92.7 414.1,102.2 372.8,126.1 372.8,116.5 				"/>
				<polygon class="st15" points="414.1,92.7 414.1,102.2 372.8,126.1 372.8,116.5 				"/>
			</g>
			<g class="st7">
				<polygon class="st14" points="405.8,87.9 364.5,111.8 372.8,116.5 414.1,92.7 				"/>
				<polygon class="st15" points="405.8,87.9 364.5,111.8 372.8,116.5 414.1,92.7 				"/>
			</g>
			<g class="st7">
				<polygon class="st14" points="372.8,126.1 364.5,121.3 364.5,111.8 372.8,116.5 				"/>
				<polygon class="st15" points="372.8,126.1 364.5,121.3 364.5,111.8 372.8,116.5 				"/>
			</g>
			<g class="st7">
				<polygon class="st14" points="480.1,92.7 480.1,102.2 438.8,126.1 438.8,116.5 				"/>
				<polygon class="st15" points="480.1,92.7 480.1,102.2 438.8,126.1 438.8,116.5 				"/>
			</g>
			<g class="st7">
				<polygon class="st14" points="471.9,87.9 430.6,111.8 438.8,116.5 480.1,92.7 				"/>
				<polygon class="st15" points="471.9,87.9 430.6,111.8 438.8,116.5 480.1,92.7 				"/>
			</g>
			<g class="st7">
				<polygon class="st14" points="438.8,126.1 430.6,121.3 430.6,111.8 438.8,116.5 				"/>
				<polygon class="st15" points="438.8,126.1 430.6,121.3 430.6,111.8 438.8,116.5 				"/>
			</g>
			<g class="st7">
				<polygon class="st14" points="480.1,54.5 480.1,64.1 438.8,87.9 438.8,78.4 				"/>
				<polygon class="st15" points="480.1,54.5 480.1,64.1 438.8,87.9 438.8,78.4 				"/>
			</g>
			<g class="st7">
				<polygon class="st14" points="471.9,49.8 430.6,73.6 438.8,78.4 480.1,54.5 				"/>
				<polygon class="st15" points="471.9,49.8 430.6,73.6 438.8,78.4 480.1,54.5 				"/>
			</g>
			<g class="st7">
				<polygon class="st14" points="438.8,87.9 430.6,83.2 430.6,73.6 438.8,78.4 				"/>
				<polygon class="st15" points="438.8,87.9 430.6,83.2 430.6,73.6 438.8,78.4 				"/>
			</g>
			<g class="st7">
				<polygon class="st14" points="282,130.9 282,140.4 240.7,164.2 240.7,154.7 				"/>
				<polygon class="st15" points="282,130.9 282,140.4 240.7,164.2 240.7,154.7 				"/>
			</g>
			<g class="st7">
				<polygon class="st14" points="273.7,126.1 232.5,149.9 240.7,154.7 282,130.9 				"/>
				<polygon class="st15" points="273.7,126.1 232.5,149.9 240.7,154.7 282,130.9 				"/>
			</g>
			<g class="st7">
				<polygon class="st14" points="240.7,164.2 232.5,159.5 232.5,149.9 240.7,154.7 				"/>
				<polygon class="st15" points="240.7,164.2 232.5,159.5 232.5,149.9 240.7,154.7 				"/>
			</g>
			<g class="st7">
				<polygon class="st14" points="405.8,49.8 364.5,73.6 372.8,78.4 414.1,54.5 				"/>
				<polygon class="st15" points="405.8,49.8 364.5,73.6 372.8,78.4 414.1,54.5 				"/>
			</g>
			<g class="st7">
				<polygon class="st14" points="282,92.7 282,102.2 240.7,126.1 240.7,116.5 				"/>
				<polygon class="st15" points="282,92.7 282,102.2 240.7,126.1 240.7,116.5 				"/>
			</g>
			<g class="st7">
				<polygon class="st14" points="273.7,87.9 232.5,111.8 240.7,116.5 282,92.7 				"/>
				<polygon class="st15" points="273.7,87.9 232.5,111.8 240.7,116.5 282,92.7 				"/>
			</g>
			<g class="st7">
				<polygon class="st14" points="240.7,126.1 232.5,121.3 232.5,111.8 240.7,116.5 				"/>
				<polygon class="st15" points="240.7,126.1 232.5,121.3 232.5,111.8 240.7,116.5 				"/>
			</g>
			<g class="st7">
				<polygon class="st14" points="348,54.5 348,64.1 306.8,87.9 306.8,78.4 				"/>
				<polygon class="st15" points="348,54.5 348,64.1 306.8,87.9 306.8,78.4 				"/>
			</g>
			<g class="st7">
				<polygon class="st14" points="339.8,49.8 298.5,73.6 306.8,78.4 348,54.5 				"/>
				<polygon class="st15" points="339.8,49.8 298.5,73.6 306.8,78.4 348,54.5 				"/>
			</g>
			<g class="st7">
				<polygon class="st14" points="306.8,87.9 298.5,83.2 298.5,73.6 306.8,78.4 				"/>
				<polygon class="st15" points="306.8,87.9 298.5,83.2 298.5,73.6 306.8,78.4 				"/>
			</g>
			<g class="st7">
				<polygon class="st14" points="414.1,16.4 414.1,25.9 372.8,49.8 372.8,40.2 				"/>
				<polygon class="st15" points="414.1,16.4 414.1,25.9 372.8,49.8 372.8,40.2 				"/>
			</g>
			<g class="st7">
				<polygon class="st14" points="405.8,11.6 364.5,35.5 372.8,40.2 414.1,16.4 				"/>
				<polygon class="st15" points="405.8,11.6 364.5,35.5 372.8,40.2 414.1,16.4 				"/>
			</g>
			<g class="st7">
				<polygon class="st14" points="372.8,49.8 364.5,45 364.5,35.5 372.8,40.2 				"/>
				<polygon class="st15" points="372.8,49.8 364.5,45 364.5,35.5 372.8,40.2 				"/>
			</g>
			<g class="st7">
				<polygon class="st14" points="215.9,130.9 215.9,140.4 174.7,164.2 174.7,154.7 				"/>
				<polygon class="st15" points="215.9,130.9 215.9,140.4 174.7,164.2 174.7,154.7 				"/>
			</g>
			<g class="st7">
				<polygon class="st14" points="207.7,126.1 166.4,149.9 174.7,154.7 215.9,130.9 				"/>
				<polygon class="st15" points="207.7,126.1 166.4,149.9 174.7,154.7 215.9,130.9 				"/>
			</g>
			<g class="st7">
				<polygon class="st14" points="174.7,164.2 166.4,159.5 166.4,149.9 174.7,154.7 				"/>
				<polygon class="st15" points="174.7,164.2 166.4,159.5 166.4,149.9 174.7,154.7 				"/>
			</g>
			<g class="st7">
				<polygon class="st14" points="282,54.5 282,64.1 240.7,87.9 240.7,78.4 				"/>
				<polygon class="st15" points="282,54.5 282,64.1 240.7,87.9 240.7,78.4 				"/>
			</g>
			<g class="st7">
				<polygon class="st14" points="273.7,49.8 232.5,73.6 240.7,78.4 282,54.5 				"/>
				<polygon class="st15" points="273.7,49.8 232.5,73.6 240.7,78.4 282,54.5 				"/>
			</g>
			<g class="st7">
				<polygon class="st14" points="240.7,87.9 232.5,83.2 232.5,73.6 240.7,78.4 				"/>
				<polygon class="st15" points="240.7,87.9 232.5,83.2 232.5,73.6 240.7,78.4 				"/>
			</g>
			<g class="st7">
				<polygon class="st14" points="348,16.4 348,25.9 306.8,49.8 306.8,40.2 				"/>
				<polygon class="st15" points="348,16.4 348,25.9 306.8,49.8 306.8,40.2 				"/>
			</g>
			<g class="st7">
				<polygon class="st14" points="339.8,11.6 298.5,35.5 306.8,40.2 348,16.4 				"/>
				<polygon class="st15" points="339.8,11.6 298.5,35.5 306.8,40.2 348,16.4 				"/>
			</g>
			<g class="st7">
				<polygon class="st14" points="306.8,49.8 298.5,45 298.5,35.5 306.8,40.2 				"/>
				<polygon class="st15" points="306.8,49.8 298.5,45 298.5,35.5 306.8,40.2 				"/>
			</g>
			<g class="st7">
				<polygon class="st14" points="215.9,54.5 215.9,64.1 174.7,87.9 174.7,78.4 				"/>
				<polygon class="st15" points="215.9,54.5 215.9,64.1 174.7,87.9 174.7,78.4 				"/>
			</g>
			<g class="st7">
				<polygon class="st14" points="207.7,49.8 166.4,73.6 174.7,78.4 215.9,54.5 				"/>
				<polygon class="st15" points="207.7,49.8 166.4,73.6 174.7,78.4 215.9,54.5 				"/>
			</g>
			<g class="st7">
				<polygon class="st14" points="174.7,87.9 166.4,83.2 166.4,73.6 174.7,78.4 				"/>
				<polygon class="st15" points="174.7,87.9 166.4,83.2 166.4,73.6 174.7,78.4 				"/>
			</g>
			<g class="st7">
				<polygon class="st14" points="149.9,92.7 149.9,102.2 108.6,126.1 108.6,116.5 				"/>
				<polygon class="st15" points="149.9,92.7 149.9,102.2 108.6,126.1 108.6,116.5 				"/>
			</g>
			<g class="st7">
				<polygon class="st14" points="141.6,87.9 100.4,111.8 108.6,116.5 149.9,92.7 				"/>
				<polygon class="st15" points="141.6,87.9 100.4,111.8 108.6,116.5 149.9,92.7 				"/>
			</g>
			<g class="st7">
				<polygon class="st14" points="108.6,126.1 100.4,121.3 100.4,111.8 108.6,116.5 				"/>
				<polygon class="st15" points="108.6,126.1 100.4,121.3 100.4,111.8 108.6,116.5 				"/>
			</g>
			<g class="st7">
				<polygon class="st14" points="282,16.4 282,25.9 240.7,49.8 240.7,40.2 				"/>
				<polygon class="st15" points="282,16.4 282,25.9 240.7,49.8 240.7,40.2 				"/>
			</g>
			<g class="st7">
				<polygon class="st14" points="273.7,11.6 232.5,35.5 240.7,40.2 282,16.4 				"/>
				<polygon class="st15" points="273.7,11.6 232.5,35.5 240.7,40.2 282,16.4 				"/>
			</g>
			<g class="st7">
				<polygon class="st14" points="240.7,49.8 232.5,45 232.5,35.5 240.7,40.2 				"/>
				<polygon class="st15" points="240.7,49.8 232.5,45 232.5,35.5 240.7,40.2 				"/>
			</g>
			<g class="st7">
				<polygon class="st14" points="215.9,16.4 215.9,25.9 174.7,49.8 174.7,40.2 				"/>
				<polygon class="st15" points="215.9,16.4 215.9,25.9 174.7,49.8 174.7,40.2 				"/>
			</g>
			<g class="st7">
				<polygon class="st14" points="207.7,11.6 166.4,35.5 174.7,40.2 215.9,16.4 				"/>
				<polygon class="st15" points="207.7,11.6 166.4,35.5 174.7,40.2 215.9,16.4 				"/>
			</g>
			<g class="st7">
				<polygon class="st14" points="174.7,49.8 166.4,45 166.4,35.5 174.7,40.2 				"/>
				<polygon class="st15" points="174.7,49.8 166.4,45 166.4,35.5 174.7,40.2 				"/>
			</g>
			<g class="st7">
				<polygon class="st14" points="149.9,16.4 149.9,25.9 108.6,49.8 108.6,40.2 				"/>
				<polygon class="st15" points="149.9,16.4 149.9,25.9 108.6,49.8 108.6,40.2 				"/>
			</g>
			<g class="st7">
				<polygon class="st14" points="141.7,11.6 100.4,35.5 108.6,40.2 149.9,16.4 				"/>
				<polygon class="st15" points="141.7,11.6 100.4,35.5 108.6,40.2 149.9,16.4 				"/>
			</g>
			<g class="st7">
				<polygon class="st14" points="108.6,49.8 100.4,45 100.4,35.5 108.6,40.2 				"/>
				<polygon class="st15" points="108.6,49.8 100.4,45 100.4,35.5 108.6,40.2 				"/>
			</g>
			<g class="st7">
				<polygon class="st14" points="83.9,54.5 83.9,64.1 42.6,87.9 42.6,78.4 				"/>
				<polygon class="st15" points="83.9,54.5 83.9,64.1 42.6,87.9 42.6,78.4 				"/>
			</g>
			<g class="st7">
				<polygon class="st14" points="75.6,49.8 34.3,73.6 42.6,78.4 83.9,54.5 				"/>
				<polygon class="st15" points="75.6,49.8 34.3,73.6 42.6,78.4 83.9,54.5 				"/>
			</g>
			<g class="st7">
				<polygon class="st14" points="42.6,87.9 34.3,83.2 34.3,73.6 42.6,78.4 				"/>
				<polygon class="st15" points="42.6,87.9 34.3,83.2 34.3,73.6 42.6,78.4 				"/>
			</g>
			<g class="st7">
				<polygon class="st14" points="149.9,130.9 149.9,140.4 108.6,164.2 108.6,154.7 				"/>
				<polygon class="st15" points="149.9,130.9 149.9,140.4 108.6,164.2 108.6,154.7 				"/>
			</g>
			<g class="st7">
				<polygon class="st14" points="141.6,126.1 100.4,149.9 108.6,154.7 149.9,130.9 				"/>
				<polygon class="st15" points="141.6,126.1 100.4,149.9 108.6,154.7 149.9,130.9 				"/>
			</g>
			<g class="st7">
				<polygon class="st14" points="108.6,164.2 100.4,159.5 100.4,149.9 108.6,154.7 				"/>
				<polygon class="st15" points="108.6,164.2 100.4,159.5 100.4,149.9 108.6,154.7 				"/>
			</g>
			<g class="st7">
				<polygon class="st14" points="83.9,92.7 83.9,102.2 42.6,126.1 42.6,116.5 				"/>
				<polygon class="st15" points="83.9,92.7 83.9,102.2 42.6,126.1 42.6,116.5 				"/>
			</g>
			<g class="st7">
				<polygon class="st14" points="75.6,87.9 34.3,111.8 42.6,116.5 83.9,92.7 				"/>
				<polygon class="st15" points="75.6,87.9 34.3,111.8 42.6,116.5 83.9,92.7 				"/>
			</g>
			<g class="st7">
				<polygon class="st14" points="42.6,126.1 34.3,121.3 34.3,111.8 42.6,116.5 				"/>
				<polygon class="st15" points="42.6,126.1 34.3,121.3 34.3,111.8 42.6,116.5 				"/>
			</g>
		</g>
	</g>
	<g id="レイヤー_5のコピー_2">
		<polygon class="st16" points="414.1,140.4 414.1,130.9 405.8,135.6 405.8,145.2 		"/>
		<polygon class="st16" points="315,111.8 315,121.3 273.7,145.2 273.7,135.6 		"/>
		<polygon class="st16" points="348,92.7 348,102.2 306.8,126.1 306.8,116.5 		"/>
		<polygon class="st16" points="215.9,92.7 215.9,102.2 174.7,126.1 174.7,116.5 		"/>
		<polygon class="st17" points="133.4,92.7 133.4,102.2 174.7,126.1 174.7,116.5 		"/>
		<polygon class="st16" points="182.9,111.8 182.9,121.3 141.6,145.2 141.6,135.6 		"/>
		<polygon class="st17" points="100.4,111.8 100.4,121.3 141.6,145.2 141.6,135.6 		"/>
		<polygon class="st16" points="149.9,54.5 149.9,64.1 108.6,87.9 108.6,78.4 		"/>
		<polygon class="st17" points="339.8,97.5 339.8,107 372.8,126.1 372.8,116.5 		"/>
		<polygon class="st17" points="306.8,116.5 306.8,126.1 339.8,145.2 339.8,135.6 		"/>
		<polygon class="st17" points="207.7,97.5 207.7,107 240.7,126.1 240.7,116.5 		"/>
		<polygon class="st16" points="249,111.8 249,121.3 207.7,145.2 207.7,135.6 		"/>
		<polygon class="st17" points="174.7,116.5 174.7,126.1 207.7,145.2 207.7,135.6 		"/>
		<polygon class="st18" points="331.5,92.7 339.8,87.9 381.1,111.8 372.8,116.5 		"/>
		<polygon class="st17" points="240.7,116.5 240.7,126.1 273.7,145.2 273.7,135.6 		"/>
		<polygon class="st16" points="381.1,111.8 381.1,121.3 339.8,145.2 339.8,135.6 		"/>
		<polygon class="st17" points="372.8,116.5 372.8,126.1 405.8,145.2 405.8,135.6 		"/>
		<polygon class="st18" points="207.7,87.9 166.4,111.8 174.7,116.5 215.9,92.7 		"/>
		<polygon class="st18" points="133.4,92.7 141.6,87.9 182.9,111.8 174.7,116.5 		"/>
		<polygon class="st18" points="174.7,107 133.4,130.9 141.6,135.6 182.9,111.8 		"/>
		<polygon class="st18" points="100.4,111.8 108.6,107 149.9,130.9 141.6,135.6 		"/>
		<polygon class="st18" points="364.5,111.8 372.8,107 414.1,130.9 405.8,135.6 		"/>
		<polygon class="st18" points="306.8,107 265.5,130.9 273.7,135.6 315,111.8 		"/>
		<polygon class="st18" points="339.8,87.9 298.5,111.8 306.8,116.5 348,92.7 		"/>
		<polygon class="st18" points="232.5,111.8 240.7,107 282,130.9 273.7,135.6 		"/>
		<polygon class="st18" points="240.7,107 199.4,130.9 207.7,135.6 249,111.8 		"/>
		<polygon class="st18" points="199.4,92.7 207.7,87.9 249,111.8 240.7,116.5 		"/>
		<polygon class="st18" points="166.4,111.8 174.7,107 215.9,130.9 207.7,135.6 		"/>
		<polygon class="st18" points="372.8,107 331.5,130.9 339.8,135.6 381.1,111.8 		"/>
		<polygon class="st18" points="298.5,111.8 306.8,107 348,130.9 339.8,135.6 		"/>
		<polygon class="st17" points="100.4,73.6 100.4,83.2 141.6,107 141.6,97.5 		"/>
		<polygon class="st17" points="141.6,59.3 141.6,68.8 174.7,87.9 174.7,78.4 		"/>
		<polygon class="st18" points="141.6,49.8 100.4,73.6 108.6,78.4 149.9,54.5 		"/>
		<polygon class="st18" points="100.4,73.6 108.6,68.8 149.9,92.7 141.6,97.5 		"/>
		<polygon class="st18" points="133.4,54.5 141.6,49.8 182.9,73.6 174.7,78.4 		"/>
		<polygon class="st16" points="182.9,83.2 182.9,73.6 174.7,78.4 174.7,87.9 		"/>
		<polygon class="st16" points="149.9,102.2 149.9,92.7 141.6,97.5 141.6,107 		"/>
		<polygon class="st18" points="372.8,49.8 364.5,54.5 372.8,59.3 381.1,54.5 		"/>
		<polygon class="st16" points="372.8,116.5 381,111.8 381.1,54.5 372.8,59.3 		"/>
		<polygon class="st17" points="372.8,116.5 364.5,111.8 364.5,54.5 372.8,59.3 		"/>
	</g>
</g>
<g id="レイヤー_9">
	
		<use xlink:href="#ひと"  width="19.5" height="26.1" id="XMLID_1_" x="-9.8" y="-13" transform="matrix(1 0 0 -1 271.6169 -94.2599)" style="overflow:visible;"/>
	
		<use xlink:href="#ひと"  width="19.5" height="26.1" x="-9.8" y="-13" transform="matrix(1 0 0 -1 125.1405 108.9456)" style="overflow:visible;"/>
	
		<use xlink:href="#ひと"  width="19.5" height="26.1" x="-9.8" y="-13" transform="matrix(1 0 0 -1 170.5395 50.9169)" style="overflow:visible;"/>
	
		<use xlink:href="#ひと"  width="19.5" height="26.1" x="-9.8" y="-13" transform="matrix(1 0 0 -1 75.6025 70.9134)" style="overflow:visible;"/>
	
		<use xlink:href="#ひと"  width="19.5" height="26.1" x="-9.8" y="-13" transform="matrix(1 0 0 -1 307.1573 22.4175)" style="overflow:visible;"/>
	
		<use xlink:href="#ひと"  width="19.5" height="26.1" x="-9.8" y="-13" transform="matrix(1 0 0 -1 444.3569 46.622)" style="overflow:visible;"/>
	
		<use xlink:href="#ひと"  width="19.5" height="26.1" x="-9.8" y="-13" transform="matrix(1 0 0 -1 406.3615 69.7047)" style="overflow:visible;"/>
	
		<use xlink:href="#ひと"  width="19.5" height="26.1" x="-9.8" y="-13" transform="matrix(1 0 0 -1 399.1879 105.3861)" style="overflow:visible;"/>
	
		<use xlink:href="#ひと"  width="19.5" height="26.1" x="-9.8" y="-13" transform="matrix(1 0 0 -1 409.4673 108.531)" style="overflow:visible;"/>
	
		<use xlink:href="#ひと"  width="19.5" height="26.1" x="-9.8" y="-13" transform="matrix(1 0 0 -1 476.8545 104.6319)" style="overflow:visible;"/>
	
		<use xlink:href="#ひと"  width="19.5" height="26.1" x="-9.8" y="-13" transform="matrix(1 0 0 -1 472.7774 118.0289)" style="overflow:visible;"/>
	
		<use xlink:href="#ひと"  width="19.5" height="26.1" x="-9.8" y="-13" transform="matrix(1 0 0 -1 462.5022 153.4302)" style="overflow:visible;"/>
	
		<use xlink:href="#ひと"  width="19.5" height="26.1" x="-9.8" y="-13" transform="matrix(1 0 0 -1 504.3367 48.9053)" style="overflow:visible;"/>
	
		<use xlink:href="#ひと"  width="19.5" height="26.1" x="-9.8" y="-13" transform="matrix(1 0 0 -1 274.6166 71.229)" style="overflow:visible;"/>
	
		<use xlink:href="#ひと"  width="19.5" height="26.1" x="-9.8" y="-13" transform="matrix(1 0 0 -1 47.0386 29.041)" style="overflow:visible;"/>
	
		<use xlink:href="#ひと"  width="19.5" height="26.1" x="-9.8" y="-13" transform="matrix(1 0 0 -1 66.7404 34.2176)" style="overflow:visible;"/>
	
		<use xlink:href="#ひと"  width="19.5" height="26.1" x="-9.8" y="-13" transform="matrix(1 0 0 -1 304.5999 90.3089)" style="overflow:visible;"/>
	
		<use xlink:href="#ひと"  width="19.5" height="26.1" x="-9.8" y="-13" transform="matrix(1 0 0 -1 86.8823 111.7738)" style="overflow:visible;"/>
	
		<use xlink:href="#ひと"  width="19.5" height="26.1" x="-9.8" y="-13" transform="matrix(1 0 0 -1 63.1016 164.532)" style="overflow:visible;"/>
	
		<use xlink:href="#ひと"  width="19.5" height="26.1" x="-9.8" y="-13" transform="matrix(1 0 0 -1 84.2618 164.2435)" style="overflow:visible;"/>
	
		<use xlink:href="#ひと"  width="19.5" height="26.1" x="-9.8" y="-13" transform="matrix(1 0 0 -1 53.164 45.7359)" style="overflow:visible;"/>
	
		<use xlink:href="#ひと"  width="19.5" height="26.1" x="-9.8" y="-13" transform="matrix(1 0 0 -1 304.1376 167.7401)" style="overflow:visible;"/>
	
		<use xlink:href="#ひと"  width="19.5" height="26.1" x="-9.8" y="-13" transform="matrix(1 0 0 -1 207.6886 34.4759)" style="overflow:visible;"/>
	
		<use xlink:href="#ひと"  width="19.5" height="26.1" x="-9.8" y="-13" transform="matrix(1 0 0 -1 228.327 33.0691)" style="overflow:visible;"/>
	
		<use xlink:href="#ひと"  width="19.5" height="26.1" x="-9.8" y="-13" transform="matrix(1 0 0 -1 217.9056 38.3355)" style="overflow:visible;"/>
	
		<use xlink:href="#ひと"  width="19.5" height="26.1" x="-9.8" y="-13" transform="matrix(1 0 0 -1 372.7961 42.3354)" style="overflow:visible;"/>
</g>
<g id="レイヤー_12">
	<polygon class="st17" points="100.4,73.6 100.4,83.2 141.6,107 141.6,97.5 	"/>
	<g id="レイヤー_263">
		<line class="st19" x1="100.4" y1="73.6" x2="100.4" y2="122.3"/>
		<line class="st19" x1="141.6" y1="97.3" x2="141.6" y2="145.5"/>
		<line class="st19" x1="182.9" y1="73.6" x2="182.9" y2="111.8"/>
		<line class="st20" x1="141.6" y1="68.8" x2="141.6" y2="87.9"/>
	</g>
</g>
</svg>
