<?xml version="1.0" encoding="UTF-8" standalone="no"?>
<!-- Created with Inkscape (http://www.inkscape.org/) -->

<svg
   xmlns:dc="http://purl.org/dc/elements/1.1/"
   xmlns:cc="http://creativecommons.org/ns#"
   xmlns:rdf="http://www.w3.org/1999/02/22-rdf-syntax-ns#"
   xmlns:svg="http://www.w3.org/2000/svg"
   xmlns="http://www.w3.org/2000/svg"
   xmlns:sodipodi="http://sodipodi.sourceforge.net/DTD/sodipodi-0.dtd"
   xmlns:inkscape="http://www.inkscape.org/namespaces/inkscape"
   width="400"
   height="400"
   viewBox="0 0 399.99998 399.99998"
   id="svg2"
   version="1.1"
   inkscape:version="0.91 r13725"
   sodipodi:docname="logo.png">
  <defs
     id="defs4" />
  <sodipodi:namedview
     id="base"
     pagecolor="#ffffff"
     bordercolor="#666666"
     borderopacity="1.0"
     inkscape:pageopacity="0.0"
     inkscape:pageshadow="2"
     inkscape:zoom="0.39"
     inkscape:cx="154.58683"
     inkscape:cy="203.74014"
     inkscape:document-units="px"
     inkscape:current-layer="layer1"
     showgrid="true"
     units="px"
     width="400mm"
     inkscape:snap-grids="true"
     inkscape:window-width="1436"
     inkscape:window-height="855"
     inkscape:window-x="4"
     inkscape:window-y="23"
     inkscape:window-maximized="1">
    <inkscape:grid
       type="axonomgrid"
       id="grid3338"
       units="mm"
       empspacing="5" />
  </sodipodi:namedview>
  <metadata
     id="metadata7">
    <rdf:RDF>
      <cc:Work
         rdf:about="">
        <dc:format>image/svg+xml</dc:format>
        <dc:type
           rdf:resource="http://purl.org/dc/dcmitype/StillImage" />
        <dc:title></dc:title>
      </cc:Work>
    </rdf:RDF>
  </metadata>
  <g
     inkscape:label="Layer 1"
     inkscape:groupmode="layer"
     id="layer1"
     transform="translate(0,-652.36211)">
    <path
       style="fill:none;fill-rule:evenodd;stroke:#000000;stroke-width:9.99999881;stroke-linecap:round;stroke-linejoin:miter;stroke-opacity:1;stroke-miterlimit:4;stroke-dasharray:none"
       d="m 199.45861,671.4566 -153.429701,88.58268 0,177.16535 153.429701,88.58267 153.42969,-88.58267 0,-177.16535 z"
       id="path3344"
       inkscape:connector-curvature="0" />
    <path
       style="fill:none;fill-rule:evenodd;stroke:#000000;stroke-width:9.99999881;stroke-linecap:round;stroke-linejoin:miter;stroke-opacity:1;stroke-miterlimit:4;stroke-dasharray:none"
       d="M 46.028909,760.03928 199.45861,848.62195 352.8883,760.03928"
       id="path3346"
       inkscape:connector-curvature="0" />
    <path
       style="fill:none;fill-rule:evenodd;stroke:#000000;stroke-width:9.99999881;stroke-linecap:round;stroke-linejoin:miter;stroke-opacity:1;stroke-miterlimit:4;stroke-dasharray:none"
       d="m 199.45861,848.62195 0,177.16535"
       id="path3348"
       inkscape:connector-curvature="0" />
    <path
       style="fill:none;fill-rule:evenodd;stroke:#000000;stroke-width:9.99999881;stroke-linecap:round;stroke-linejoin:miter;stroke-opacity:1;stroke-miterlimit:4;stroke-dasharray:none"
       d="M 230.14455,830.90542 107.40079,760.03928"
       id="path3350"
       inkscape:connector-curvature="0" />
    <path
       style="fill:none;fill-rule:evenodd;stroke:#000000;stroke-width:9.99999881;stroke-linecap:round;stroke-linejoin:miter;stroke-opacity:1;stroke-miterlimit:4;stroke-dasharray:none"
       d="M 199.45861,884.05502 76.714849,813.18888"
       id="path3352"
       inkscape:connector-curvature="0" />
    <path
       style="fill:none;fill-rule:evenodd;stroke:#000000;stroke-width:9.99999881;stroke-linecap:round;stroke-linejoin:miter;stroke-opacity:1;stroke-miterlimit:4;stroke-dasharray:none"
       d="m 230.14455,830.90542 92.05781,53.1496"
       id="path3354"
       inkscape:connector-curvature="0" />
    <path
       style="fill:none;fill-rule:evenodd;stroke:#000000;stroke-width:9.99999881;stroke-linecap:round;stroke-linejoin:miter;stroke-opacity:1;stroke-miterlimit:4;stroke-dasharray:none"
       d="m 322.20236,884.05502 30.68594,17.71654"
       id="path3358"
       inkscape:connector-curvature="0" />
    <path
       style="fill:none;fill-rule:evenodd;stroke:#000000;stroke-width:9.99999881;stroke-linecap:round;stroke-linejoin:miter;stroke-opacity:1;stroke-miterlimit:4;stroke-dasharray:none"
       d="m 107.40079,760.03928 92.05782,-53.14961 122.74372,70.86613"
       id="path3360"
       inkscape:connector-curvature="0" />
    <path
       style="fill:none;fill-rule:evenodd;stroke:#000000;stroke-width:9.99999881;stroke-linecap:round;stroke-linejoin:miter;stroke-opacity:1;stroke-miterlimit:4;stroke-dasharray:none"
       d="m 107.40079,937.20463 92.05782,53.14961"
       id="path3364"
       inkscape:connector-curvature="0" />
    <path
       style="fill:none;fill-rule:evenodd;stroke:#000000;stroke-width:9.99999881;stroke-linecap:round;stroke-linejoin:miter;stroke-opacity:1;stroke-miterlimit:4;stroke-dasharray:none"
       d="m 291.51643,760.03928 -92.05782,53.1496"
       id="path3366"
       inkscape:connector-curvature="0" />
    <path
       style="fill:none;fill-rule:evenodd;stroke:#000000;stroke-width:9.99999881;stroke-linecap:round;stroke-linejoin:miter;stroke-opacity:1;stroke-miterlimit:4;stroke-dasharray:none"
       d="m 199.45861,990.35424 92.05782,-53.14961"
       id="path3370"
       inkscape:connector-curvature="0" />
    <path
       style="fill:none;fill-rule:evenodd;stroke:#000000;stroke-width:9.99999881;stroke-linecap:round;stroke-linejoin:miter;stroke-opacity:1;stroke-miterlimit:4;stroke-dasharray:none"
       d="m 199.45861,848.62195 122.74375,70.86614 -30.68597,17.71651"
       id="path3374"
       inkscape:connector-curvature="0" />
    <path
       style="fill:none;fill-rule:evenodd;stroke:#000000;stroke-width:9.99999881;stroke-linecap:round;stroke-linejoin:miter;stroke-opacity:1;stroke-miterlimit:4;stroke-dasharray:none"
       d="m 291.51643,901.77156 -92.05782,53.14961"
       id="path3376"
       inkscape:connector-curvature="0" />
    <path
       style="fill:none;fill-rule:evenodd;stroke:#000000;stroke-width:9.99999881;stroke-linecap:round;stroke-linejoin:miter;stroke-opacity:1;stroke-miterlimit:4;stroke-dasharray:none"
       d="m 107.40079,901.77156 92.05782,53.14961"
       id="path3378"
       inkscape:connector-curvature="0" />
    <path
       style="fill:none;fill-rule:evenodd;stroke:#000000;stroke-width:9.99999881;stroke-linecap:round;stroke-linejoin:miter;stroke-opacity:1;stroke-miterlimit:4;stroke-dasharray:none"
       d="m 76.714849,884.05502 -30.68594,17.71654"
       id="path3380"
       inkscape:connector-curvature="0" />
    <path
       style="fill:none;fill-rule:evenodd;stroke:#000000;stroke-width:9.99999881;stroke-linecap:round;stroke-linejoin:miter;stroke-opacity:1;stroke-miterlimit:4;stroke-dasharray:none"
       d="m 76.714849,884.05502 30.685941,17.71654"
       id="path3382"
       inkscape:connector-curvature="0" />
    <path
       style="fill:none;fill-rule:evenodd;stroke:#000000;stroke-width:9.99999881;stroke-linecap:round;stroke-linejoin:miter;stroke-opacity:1;stroke-miterlimit:4;stroke-dasharray:none"
       d="m 46.028909,795.47235 30.68594,17.71653"
       id="path3384"
       inkscape:connector-curvature="0" />
    <path
       style="fill:none;fill-rule:evenodd;stroke:#000000;stroke-width:9.99999881;stroke-linecap:round;stroke-linejoin:miter;stroke-opacity:1;stroke-miterlimit:4;stroke-dasharray:none"
       d="m 46.028909,901.77156 61.371881,35.43307"
       id="path3386"
       inkscape:connector-curvature="0" />
    <path
       style="fill:none;fill-rule:evenodd;stroke:#000000;stroke-width:9.99999881;stroke-linecap:round;stroke-linejoin:miter;stroke-opacity:1;stroke-miterlimit:4;stroke-dasharray:none"
       d="m 322.20236,777.75581 0,35.43307"
       id="path3388"
       inkscape:connector-curvature="0" />
    <path
       style="fill:none;fill-rule:evenodd;stroke:#000000;stroke-width:9.99999881;stroke-linecap:round;stroke-linejoin:miter;stroke-opacity:1;stroke-miterlimit:4;stroke-dasharray:none"
       d="m 352.8883,795.47235 -30.68594,17.71653"
       id="path3390"
       inkscape:connector-curvature="0" />
    <path
       style="fill:none;fill-rule:evenodd;stroke:#000000;stroke-width:9.99999881;stroke-linecap:round;stroke-linejoin:miter;stroke-opacity:1;stroke-miterlimit:4;stroke-dasharray:none"
       d="m 199.45861,742.32274 -61.37188,35.43307"
       id="path3394"
       inkscape:connector-curvature="0" />
    <path
       style="fill:none;fill-rule:evenodd;stroke:#000000;stroke-width:9.99999881;stroke-linecap:round;stroke-linejoin:miter;stroke-opacity:1;stroke-miterlimit:4;stroke-dasharray:none"
       d="m 199.45861,742.32274 122.74375,70.86614"
       id="path3396"
       inkscape:connector-curvature="0" />
    <path
       style="fill:none;fill-rule:evenodd;stroke:#000000;stroke-width:9.99999881;stroke-linecap:round;stroke-linejoin:miter;stroke-opacity:1;stroke-miterlimit:4;stroke-dasharray:none"
       d="m 322.20236,813.18888 0,106.29921"
       id="path3398"
       inkscape:connector-curvature="0" />
    <path
       style="fill:none;fill-rule:evenodd;stroke:#000000;stroke-width:9.99999881;stroke-linecap:round;stroke-linejoin:miter;stroke-opacity:1;stroke-miterlimit:4;stroke-dasharray:none"
       d="m 230.14455,830.90542 0,35.43307"
       id="path3400"
       inkscape:connector-curvature="0" />
    <path
       style="fill:none;fill-rule:evenodd;stroke:#000000;stroke-width:9.99999881;stroke-linecap:round;stroke-linejoin:miter;stroke-opacity:1;stroke-miterlimit:4;stroke-dasharray:none"
       d="m 199.45861,884.05502 61.37188,35.43307"
       id="path3404"
       inkscape:connector-curvature="0" />
    <path
       style="fill:none;fill-rule:evenodd;stroke:#000000;stroke-width:9.99999881;stroke-linecap:round;stroke-linejoin:miter;stroke-opacity:1;stroke-miterlimit:4;stroke-dasharray:none"
       d="m 199.45861,884.05502 30.68594,-17.71653"
       id="path3406"
       inkscape:connector-curvature="0" />
    <path
       style="fill:none;fill-rule:evenodd;stroke:#000000;stroke-width:9.99999881;stroke-linecap:round;stroke-linejoin:miter;stroke-opacity:1;stroke-miterlimit:4;stroke-dasharray:none"
       d="m 76.714849,777.75581 0,106.29921"
       id="path3408"
       inkscape:connector-curvature="0" />
    <path
       style="fill:none;fill-rule:evenodd;stroke:#190000;stroke-width:9.99999881;stroke-linecap:butt;stroke-linejoin:miter;stroke-opacity:1;stroke-miterlimit:4;stroke-dasharray:none"
       d="M 322.20236,919.48809 352.8883,901.77156"
       id="path4213"
       inkscape:connector-curvature="0" />
    <path
       style="fill:#25b8a2;stroke:none;stroke-width:1px;stroke-linecap:butt;stroke-linejoin:miter;stroke-opacity:1;fill-opacity:1"
       d="M 128.05613,148.98863 C 89.096905,126.4773 57.111009,107.94878 56.976364,107.81414 56.536445,107.37422 199.21754,25.295076 199.94016,25.57237 c 0.94991,0.364514 141.23967,81.33919 141.77135,81.82985 0.23093,0.21311 -4.03067,2.96812 -9.47023,6.12225 -8.63844,5.009 -10.03015,5.6614 -10.99672,5.155 C 320.63592,118.3606 292.99441,102.43339 259.81898,83.285676 200.75017,49.19319 199.47233,48.48761 198.16367,49.241665 c -0.735,0.423508 -21.99992,12.668694 -47.25538,27.211526 -25.25546,14.542831 -46.5575,27.113819 -47.33786,27.935539 -1.70839,1.7989 -1.88479,4.35783 -0.42808,6.20974 0.54493,0.69276 26.89677,16.21669 58.55965,34.49762 31.66289,18.28093 57.56104,33.35919 57.55145,33.50726 -0.024,0.37086 -19.3236,11.3677 -19.89917,11.33848 -0.25475,-0.013 -32.33892,-18.44188 -71.29815,-40.9532 z"
       id="path4252"
       inkscape:connector-curvature="0"
       transform="translate(0,652.36211)" />
    <path
       style="fill:#25b8a2;stroke:none;stroke-width:1px;stroke-linecap:butt;stroke-linejoin:miter;stroke-opacity:1;fill-opacity:1"
       d="m 125.26502,289.08346 c -37.656637,-21.73868 -68.303713,-39.6805 -68.104607,-39.8707 1.311813,-1.25314 19.431437,-11.28389 19.993616,-11.06816 1.196974,0.45932 115.508991,66.47784 116.200801,67.10935 0.49996,0.45637 0.62213,3.29217 0.51594,11.97618 l -0.13912,11.37821 -68.46663,-39.52488 z"
       id="path4256"
       inkscape:connector-curvature="0"
       transform="translate(0,652.36211)" />
    <path
       style="fill:#25b8a2;stroke:none;stroke-width:1px;stroke-linecap:butt;stroke-linejoin:miter;stroke-opacity:1;fill-opacity:1"
       d="m 204.94365,317.11651 0.13877,-11.71076 23.21748,-13.40948 c 12.76962,-7.37521 32.21721,-18.61081 43.21688,-24.968 l 19.99939,-11.55852 10.02411,5.78722 c 8.5088,4.91238 9.89219,5.87737 9.15145,6.38363 -0.47997,0.32803 -24.32233,14.12334 -52.98302,30.65624 -28.66069,16.5329 -52.28888,30.16571 -52.50709,30.29513 -0.2182,0.12942 -0.33429,-5.03453 -0.25797,-11.47546 z"
       id="path4258"
       inkscape:connector-curvature="0"
       transform="translate(0,652.36211)" />
    <path
       style="fill:#36cb86;stroke:none;stroke-width:1px;stroke-linecap:butt;stroke-linejoin:miter;stroke-opacity:1;fill-opacity:1"
       d="m 275.6381,234.18925 -40.37229,-23.32817 -3.3e-4,-11.52275 c -2.1e-4,-7.32443 0.18452,-11.46009 0.50701,-11.35077 0.27904,0.0946 18.61781,10.61985 40.75282,23.38946 l 40.24547,23.21749 0.007,11.47975 c 0.004,6.31387 -0.16737,11.47152 -0.3802,11.46146 -0.21282,-0.0101 -18.55448,-10.51597 -40.75924,-23.34647 z"
       id="path4260"
       inkscape:connector-curvature="0"
       transform="translate(0,652.36211)" />
    <path
       style="fill:#36cb86;stroke:none;stroke-width:1px;stroke-linecap:butt;stroke-linejoin:miter;stroke-opacity:1;fill-opacity:1"
       d="m 137.88071,190.0626 -55.850945,-32.24566 0,-11.5288 c 0,-6.34084 0.09042,-11.52881 0.200941,-11.52881 0.385234,0 110.474114,63.60717 111.124124,64.20531 0.49983,0.45995 0.6221,3.29744 0.51594,11.9732 l -0.13912,11.37041 -55.85094,-32.24565 z"
       id="path4262"
       inkscape:connector-curvature="0"
       transform="translate(0,652.36211)" />
    <path
       style="fill:#36cb86;stroke:none;stroke-width:1px;stroke-linecap:butt;stroke-linejoin:miter;stroke-opacity:1;fill-opacity:1"
       d="m 122.14441,322.73828 -71.071287,-41.05947 0,-11.58945 c 0,-6.37419 0.19026,-11.51206 0.4228,-11.41747 0.23254,0.0946 32.387042,18.62988 71.454447,41.18954 l 71.03165,41.01755 0.004,11.47975 c 0.002,6.31387 -0.17033,11.47059 -0.38315,11.45939 -0.21283,-0.0112 -32.36904,-18.49713 -71.45825,-41.07984 l 1.8e-4,0 z"
       id="path4264"
       inkscape:connector-curvature="0"
       transform="translate(0,652.36211)" />
    <path
       style="fill:#36cb86;stroke:none;stroke-width:1px;stroke-linecap:butt;stroke-linejoin:miter;stroke-opacity:1;fill-opacity:1"
       d="m 128.38836,113.72991 c -5.29173,-3.04793 -9.70305,-5.71708 -9.80294,-5.93145 -0.18734,-0.40206 79.9005,-46.929878 80.82161,-46.954098 0.28377,-0.0075 18.39341,10.313007 40.24364,22.934375 21.85023,12.621368 40.11136,23.160703 40.58028,23.420743 0.66881,0.37088 -1.27749,1.69618 -9.02902,6.14818 -5.43489,3.12146 -10.15417,5.64608 -10.4873,5.61026 -0.33312,-0.0358 -13.93427,-7.75563 -30.22477,-17.15514 C 211.26132,90.708037 200.37411,84.712762 199.455,84.712762 c -0.91976,0 -11.90463,6.055392 -31.35451,17.284128 -16.46631,9.50627 -29.97296,17.28201 -30.01477,17.27942 -0.0418,-0.003 -4.40563,-2.49846 -9.69736,-5.5464 z"
       id="path4266"
       inkscape:connector-curvature="0"
       transform="translate(0,652.36211)" />
    <path
       style="fill:#36cb86;stroke:none;stroke-width:1px;stroke-linecap:butt;stroke-linejoin:miter;stroke-opacity:1;fill-opacity:1"
       d="m 309.20667,147.28205 c -3.74205,-2.17552 -6.70825,-4.10999 -6.59155,-4.2988 0.15848,-0.25642 10.93814,-6.57629 13.78222,-8.0802 0.21283,-0.11254 0.38696,3.52388 0.38696,8.08094 0,4.55705 -0.17413,8.27836 -0.38696,8.26956 -0.21282,-0.009 -3.44863,-1.79597 -7.19067,-3.9715 z"
       id="path4268"
       inkscape:connector-curvature="0"
       transform="translate(0,652.36211)" />
    <path
       style="fill:#36cb86;stroke:none;stroke-width:1px;stroke-linecap:butt;stroke-linejoin:miter;stroke-opacity:1;fill-opacity:1"
       d="m 51.073123,196.32297 c 0,-24.25914 0.184478,-44.03014 0.409952,-43.93555 0.225474,0.0946 4.863299,2.72591 10.306278,5.84737 l 9.896325,5.67538 0.0126,32.30978 0.0126,32.30977 -10.318881,5.95039 -10.31888,5.95039 0,-44.10753 z"
       id="path4270"
       inkscape:connector-curvature="0"
       transform="translate(0,652.36211)" />
    <path
       style="fill:#36cb86;stroke:none;stroke-width:1px;stroke-linecap:butt;stroke-linejoin:miter;stroke-opacity:1;fill-opacity:1"
       d="m 219.9466,166.62063 -9.90114,-5.75162 1.38806,-0.84302 c 4.69887,-2.85379 49.12541,-28.36232 49.3968,-28.36232 0.48686,0 19.2814,10.86774 19.55214,11.30581 0.19,0.30742 -49.77224,29.50853 -50.35088,29.42827 -0.10112,-0.014 -4.63936,-2.61373 -10.08498,-5.77712 z"
       id="path4272"
       inkscape:connector-curvature="0"
       transform="translate(0,652.36211)" />
    <path
       style="fill:#6cffce;stroke:none;stroke-width:1px;stroke-linecap:butt;stroke-linejoin:miter;stroke-opacity:1;fill-opacity:1"
       d="m 61.392003,145.90551 -10.060908,-5.84319 -0.138743,-11.70798 -0.138743,-11.70798 2.202519,1.27521 c 1.211385,0.70136 5.685141,3.28549 9.94168,5.74251 4.256538,2.45701 7.917845,4.63975 8.136237,4.85051 0.218393,0.21077 0.33448,5.52467 0.257972,11.80866 l -0.139105,11.42545 -10.060909,-5.84319 z"
       id="path4274"
       inkscape:connector-curvature="0"
       transform="translate(0,652.36211)" />
    <path
       style="fill:#6cffce;stroke:none;stroke-width:1px;stroke-linecap:butt;stroke-linejoin:miter;stroke-opacity:1;fill-opacity:1"
       d="m 204.82445,213.97758 0,-8.57741 2.19276,1.27284 c 1.20602,0.70006 4.55056,2.63749 7.43231,4.3054 l 5.23955,3.03255 -4.72361,2.68281 c -2.59798,1.47554 -5.94252,3.39795 -7.43231,4.27202 l -2.7087,1.58921 0,-8.57742 z"
       id="path4276"
       inkscape:connector-curvature="0"
       transform="translate(0,652.36211)" />
    <path
       style="fill:#6cffce;stroke:none;stroke-width:1px;stroke-linecap:butt;stroke-linejoin:miter;stroke-opacity:1;fill-opacity:1"
       d="m 217.73563,200.73254 c -3.82396,-2.19143 -7.01142,-4.17554 -7.08323,-4.40913 -0.14338,-0.4664 13.7582,-8.61354 14.10525,-8.26649 0.11818,0.11818 0.15092,3.91504 0.0728,8.43746 l -0.14212,8.22258 -6.95266,-3.98442 z"
       id="path4278"
       inkscape:connector-curvature="0"
       transform="translate(0,652.36211)" />
    <path
       style="fill:#6cffce;stroke:none;stroke-width:1px;stroke-linecap:butt;stroke-linejoin:miter;stroke-opacity:1;fill-opacity:1"
       d="m 281.31654,131.22378 c -5.17693,-3.02141 -9.41412,-5.6454 -9.41598,-5.83109 -0.005,-0.48767 18.85335,-11.27381 19.68168,-11.25712 0.3821,0.008 5.0649,2.54152 10.40623,5.6307 l 9.7115,5.61669 -3.77815,2.18356 c -2.07798,1.20096 -6.52059,3.775 -9.87247,5.72008 -3.35188,1.94508 -6.37015,3.51269 -6.70727,3.48357 -0.33712,-0.0291 -4.84862,-2.52499 -10.02554,-5.54639 z"
       id="path4280"
       inkscape:connector-curvature="0"
       transform="translate(0,652.36211)" />
    <path
       style="fill:#6cffce;stroke:none;stroke-width:1px;stroke-linecap:butt;stroke-linejoin:miter;stroke-opacity:1;fill-opacity:1"
       d="m 327.6243,139.78979 0.005,-11.47976 7.86297,-4.51774 c 4.32464,-2.48476 8.85412,-5.11251 10.06552,-5.83944 l 2.20254,-1.3217 -0.13876,11.76385 -0.13877,11.76385 -9.54496,5.53956 c -5.24973,3.04675 -9.7191,5.54666 -9.93192,5.55534 -0.21283,0.009 -0.38464,-5.1501 -0.38179,-11.46396 z"
       id="path4282"
       inkscape:connector-curvature="0"
       transform="translate(0,652.36211)" />
    <path
       style="fill:#6cffce;stroke:none;stroke-width:1px;stroke-linecap:butt;stroke-linejoin:miter;stroke-opacity:1;fill-opacity:1"
       d="m 327.61913,249.26846 c 0,-4.55705 0.17413,-8.19347 0.38696,-8.08094 2.87383,1.51965 13.62464,7.82523 13.78549,8.08549 0.20099,0.32521 -13.08859,8.28101 -13.83281,8.28101 -0.1868,0 -0.33964,-3.7285 -0.33964,-8.28556 z"
       id="path4284"
       inkscape:connector-curvature="0"
       transform="translate(0,652.36211)" />
    <path
       style="fill:#6cffce;stroke:none;stroke-width:1px;stroke-linecap:butt;stroke-linejoin:miter;stroke-opacity:1;fill-opacity:1"
       d="m 235.65699,246.54627 c -13.83106,-7.99232 -25.14958,-14.67816 -25.15227,-14.85742 -0.007,-0.44224 18.88045,-11.28281 19.65758,-11.28281 0.65769,0 48.77254,27.59184 49.8593,28.5922 0.49686,0.45737 -1.2354,1.67858 -7.61255,5.36666 -4.54068,2.626 -9.00928,5.21067 -9.93023,5.7437 l -1.67445,0.96916 -25.14738,-14.53149 z"
       id="path4286"
       inkscape:connector-curvature="0"
       transform="translate(0,652.36211)" />
    <path
       style="fill:#6cffce;stroke:none;stroke-width:1px;stroke-linecap:butt;stroke-linejoin:miter;stroke-opacity:1;fill-opacity:1"
       d="m 204.83897,352.57059 0.0145,-11.69161 68.42477,-39.46972 c 37.63362,-21.70835 69.7877,-40.24021 71.4535,-41.18193 l 3.02874,-1.7122 -0.13876,11.68771 -0.13877,11.68771 -33.27839,19.21411 c -18.30311,10.56776 -50.40128,29.10139 -71.32926,41.18583 l -38.05087,21.97172 0.0145,-11.69162 z"
       id="path4288"
       inkscape:connector-curvature="0"
       transform="translate(0,652.36211)" />
    <path
       style="fill:#6cffce;stroke:none;stroke-width:1px;stroke-linecap:butt;stroke-linejoin:miter;stroke-opacity:1;fill-opacity:1"
       d="m 337.42206,234.42354 -9.54496,-5.56172 -0.13282,-32.55327 -0.13281,-32.55327 9.67778,-5.54555 c 5.32278,-3.05005 9.85191,-5.64087 10.06474,-5.75737 0.21282,-0.11651 0.38696,19.53673 0.38696,43.67387 0,24.13712 -0.17414,43.87969 -0.38696,43.87236 -0.21283,-0.007 -4.6822,-2.5161 -9.93193,-5.57505 z"
       id="path4290"
       inkscape:connector-curvature="0"
       transform="translate(0,652.36211)" />
  </g>
</svg>
